<svg viewBox="0 0 448 448" fill="none" xmlns="http://www.w3.org/2000/svg">
<g clip-path="url(#clip0_878_203)">
<rect x="247.535" y="225" width="200" height="200" rx="15" fill="#9F1239"/>
<path d="M338.455 255.4C353.122 255.4 365.989 258.267 377.055 264C388.255 269.733 396.855 277.933 402.855 288.6C408.989 299.133 412.055 311.4 412.055 325.4C412.055 339.4 408.989 351.667 402.855 362.2C396.855 372.6 388.255 380.667 377.055 386.4C365.989 392.133 353.122 395 338.455 395H289.655V255.4H338.455ZM337.455 371.2C352.122 371.2 363.455 367.2 371.455 359.2C379.455 351.2 383.455 339.933 383.455 325.4C383.455 310.867 379.455 299.533 371.455 291.4C363.455 283.133 352.122 279 337.455 279H317.655V371.2H337.455Z" fill="#F8FAFC"/>
</g>
<g clip-path="url(#clip1_878_203)">
<rect x="22.3672" width="200" height="200" rx="15" fill="#9F1239"/>
<path d="M150.185 143.4H94.5852L85.3852 170H55.9852L106.185 30.2H138.785L188.985 170H159.385L150.185 143.4ZM142.585 121L122.385 62.6L102.185 121H142.585Z" fill="#F8FAFC"/>
</g>
<rect x="0.0625" y="254.292" width="200" height="200" rx="15" transform="rotate(-15 0.0625 254.292)" fill="#9F1239"/>
<path d="M160.47 242.783L196.601 377.627L169.555 384.874L154.181 327.498L96.4189 342.975L111.793 400.351L84.7468 407.598L48.6157 272.755L75.6616 265.508L90.5178 320.952L148.28 305.474L133.424 250.03L160.47 242.783Z" fill="#F8FAFC"/>
<g clip-path="url(#clip2_878_203)">
<rect x="247.367" width="200" height="200" rx="15" fill="#9F1239"/>
<path d="M338.288 30.4C352.954 30.4 365.821 33.2667 376.888 39C388.088 44.7333 396.688 52.9333 402.688 63.6C408.821 74.1333 411.888 86.4 411.888 100.4C411.888 114.4 408.821 126.667 402.688 137.2C396.688 147.6 388.088 155.667 376.888 161.4C365.821 167.133 352.954 170 338.288 170H289.488V30.4H338.288ZM337.288 146.2C351.954 146.2 363.288 142.2 371.288 134.2C379.288 126.2 383.288 114.933 383.288 100.4C383.288 85.8667 379.288 74.5333 371.288 66.4C363.288 58.1333 351.954 54 337.288 54H317.488V146.2H337.288Z" fill="#F8FAFC"/>
</g>
</svg>
