<svg width="84" height="100" viewBox="0 0 84 100" fill="none" xmlns="http://www.w3.org/2000/svg">
<path d="M42.2266 28.1339C47.9432 14.3731 63.3372 3.34823 80.6504 1.51074H42.2266V28.1339Z" fill="white"/>
<path d="M42.2266 71.1312H76.6488C76.7304 71.0087 76.7713 70.8862 76.8529 70.7637C80.0788 64.5162 82.0387 54.4305 81.9979 47.0806V21.8049C62.8472 28.7874 45.044 50.0205 42.2266 71.1312Z" fill="white"/>
<path d="M7.80469 71.1309C15.1138 85.1366 28.8745 95.6715 42.2269 98.4073V71.1309H7.80469Z" fill="white"/>
<path d="M42.2323 71.131V28.1339C36.5565 14.3731 21.1216 3.34823 3.80843 1.51074H2.46094V21.7639C21.6116 28.7872 39.4148 50.0203 42.2323 71.131Z" fill="white"/>
<path d="M83.5522 0H0.90625V47.1213C0.90625 54.757 2.86623 64.8836 6.25537 71.4986C13.7686 86.1576 28.0194 97.1417 42.1067 99.9592L42.2701 100L42.4334 99.9592C56.5208 97.1417 70.7715 86.1576 78.2848 71.4986C81.6739 64.8836 83.5931 54.7162 83.6339 47.1213L83.5522 0ZM76.6515 71.1311H42.2292V98.4075C28.836 95.6717 15.0753 85.1368 7.80703 71.1311H42.2292C39.4118 50.0204 21.6086 28.7873 2.4579 21.8048V1.55166H3.80539C21.1186 3.42997 36.5535 14.414 42.2292 28.1748V1.55166H80.6531C63.3399 3.42997 47.905 14.414 42.2292 28.1748V71.1311C45.0467 50.0204 62.8499 28.7873 82.0006 21.8048V47.0804C82.0006 54.4304 80.0406 64.5161 76.8556 70.7636C76.774 70.8861 76.6923 71.0086 76.6515 71.1311Z" fill="#004B88"/>
</svg>
