<svg width="100" height="100" viewBox="0 0 100 100" fill="none" xmlns="http://www.w3.org/2000/svg">
<g clip-path="url(#clip0_640_497)">
<path fill-rule="evenodd" clip-rule="evenodd" d="M99.4185 49.6607C99.4185 76.9978 77.2573 99.2431 49.9202 99.2431C22.583 99.2431 0.421875 76.9978 0.421875 49.6607C0.421875 22.3235 22.583 0.162354 49.9202 0.162354C77.2573 0.162354 99.4185 22.3235 99.4185 49.6607Z" fill="#003F7F"/>
<path fill-rule="evenodd" clip-rule="evenodd" d="M62.4592 11.6355C61.3253 11.6364 60.2382 11.7082 59.2561 11.8595C57.4365 12.1397 56.6576 12.2984 55.2092 12.6928C53.4524 13.1711 50.6024 14.1648 50.3342 14.3907C50.272 14.4431 50.1523 14.4845 50.0686 14.4845C49.4998 14.4845 43.2189 17.7338 41.4592 18.9376C41.1646 19.1392 40.9111 19.3081 40.8915 19.3178C40.8719 19.3275 40.9696 19.5437 41.1103 19.797C41.251 20.0502 41.4767 20.4726 41.6155 20.7345C41.7543 20.9964 41.921 21.2776 41.9801 21.3595C42.1246 21.5596 42.0852 21.5701 43.0165 21.0261C45.6542 19.4856 48.1093 18.2892 51.0426 17.1095C51.5664 16.8988 52.1713 16.6496 52.3863 16.5574C52.6013 16.4652 52.855 16.3907 52.9488 16.3907C53.0426 16.3907 53.2963 16.3137 53.5113 16.224C55.1871 15.5253 56.9342 15.1468 59.5582 14.9115C62.7562 14.6248 65.316 14.9393 68.2457 15.974C69.5043 16.4186 71.9923 17.8351 72.7717 18.5522C72.9354 18.7028 73.3239 19.0646 73.6363 19.3543C74.1327 19.8145 74.2379 19.8624 74.4696 19.7501C76.0853 18.9672 78.8899 18.8443 81.1363 19.4532C81.5146 19.5558 81.8498 19.6095 81.8811 19.5782C81.9484 19.511 80.3424 17.9657 79.5009 17.2865C77.8894 15.9859 75.1277 14.3335 73.6624 13.797C73.4659 13.725 73.0121 13.5563 72.6519 13.4168C69.7164 12.2795 65.8611 11.6327 62.4592 11.6355ZM38.2613 16.2709C37.8661 16.2709 37.2965 16.6419 37.2196 16.948C37.1833 17.0929 37.2434 17.3631 37.3551 17.5522C37.5479 17.8787 37.5469 17.9105 37.3082 18.3022C36.9929 18.8194 36.9927 19.0143 37.3134 19.422C37.5429 19.7138 37.6293 19.7457 38.1259 19.698L38.6832 19.6407L39.6259 21.4793C40.453 23.0922 40.5412 23.3314 40.3759 23.4532C39.5722 24.0456 39.9825 25.3858 40.8967 25.1563C41.12 25.1003 41.2168 25.1505 41.3342 25.3699C41.4175 25.5256 41.6006 25.7084 41.7405 25.7761C42.0702 25.9358 42.0227 25.934 42.5321 25.7813C42.8083 25.6986 43.0507 25.5177 43.178 25.3022C43.3654 24.9849 43.3654 24.9279 43.1936 24.5834C43.0224 24.2403 43.0252 24.1873 43.204 23.9897C43.3167 23.8651 43.3967 23.5715 43.3967 23.297C43.3967 22.72 43.0028 22.3073 42.5321 22.3907C42.3684 22.4197 42.1356 22.4635 42.0113 22.4845C41.8405 22.5133 41.6918 22.3473 41.4071 21.8074C41.2 21.4145 40.7749 20.6241 40.4644 20.0522L39.9019 19.0105L40.204 18.6824C40.5767 18.2805 40.6034 17.644 40.2665 17.2397C40.067 17.0003 39.9689 16.9724 39.5582 17.0417C39.2841 17.088 39.079 17.0793 39.079 17.0157C39.079 16.7784 38.5227 16.2709 38.2613 16.2709ZM25.8238 16.9324C25.7122 16.9567 25.7686 17.2246 25.928 17.7501C26.0255 18.0715 26.101 18.5797 26.0999 18.8803C26.0979 19.4029 26.0257 19.7243 25.3394 22.1615C25.1226 22.9316 25.0336 23.5275 25.0321 24.2761C25.031 24.849 24.989 25.3178 24.9384 25.3178C24.7849 25.3178 24.4495 24.59 24.2092 23.7449C23.4329 21.0148 21.563 19.2093 18.5582 18.2865C17.5268 17.9698 17.3329 18.0945 17.8811 18.7188C18.3437 19.2458 18.806 20.2207 19.3186 21.7449C19.5278 22.3669 19.7553 22.9855 19.8238 23.1147C20.0594 23.5592 21.1648 24.6389 22.1155 25.3543C23.315 26.2568 23.7707 26.747 24.2092 27.6095C24.5837 28.346 25.3057 30.4453 25.2144 30.5365C25.1029 30.6481 24.7756 30.2605 24.0009 29.1043C22.8948 27.4534 22.1998 26.893 20.8655 26.5626C19.6826 26.2697 17.82 26.4263 17.9124 26.8126C17.9314 26.8921 18.1912 27.1414 18.4853 27.3647C19.0963 27.8284 19.7956 28.7072 20.1728 29.4793C20.7141 30.5874 22.5566 32.1043 23.3603 32.1043C23.7648 32.1043 25.0299 32.8373 25.3707 33.2709C26.0785 34.1717 26.5 35.5268 26.4384 36.6876L26.4019 37.4011L26.0842 36.8595C25.5407 35.9349 24.8679 35.372 23.5165 34.7136C22.6439 34.2885 22.0756 33.9237 21.6728 33.5209C21.3527 33.2009 21.0604 32.9376 21.0217 32.9376C20.8807 32.9376 21.1211 34.9929 21.3446 35.6928C21.8841 37.3814 22.977 38.7111 24.3499 39.3595C25.3101 39.813 25.7777 40.1887 26.204 40.8438L26.5217 41.3282L26.4957 43.5678C26.4695 45.7843 26.3115 46.9679 26.0946 46.6199C26.0366 46.5268 25.9606 46.2062 25.9228 45.9116C25.7533 44.5917 25.1998 42.6585 24.7144 41.6876C24.0554 40.3693 22.8637 39.3185 21.7196 39.0522C21.1274 38.9143 20.1519 38.9406 20.1519 39.0938C20.1519 39.1242 20.3316 39.3613 20.553 39.6199C20.9568 40.0917 21.4592 41.26 21.4592 41.7241C21.4592 41.8605 21.5607 42.3895 21.6832 42.9011C22.2484 45.2618 22.9079 46.3992 24.3186 47.4584C25.2131 48.1301 25.7457 48.7329 25.7457 49.0678C25.7457 49.2361 25.6668 49.4051 25.5686 49.4428C25.4704 49.4805 25.3915 49.581 25.3915 49.6668C25.3915 49.7525 25.3469 49.8376 25.2978 49.8595C25.1304 49.9338 24.5457 50.887 24.454 51.2293C24.4037 51.4169 24.4015 51.7965 24.454 52.0782C24.5376 52.5263 24.5091 52.6539 24.2249 53.0834C23.9516 53.4963 23.9019 53.7003 23.9019 54.3751C23.9019 55.093 23.942 55.2402 24.2978 55.7449C24.6151 56.195 24.6827 56.3834 24.6259 56.6772C24.4312 57.6838 24.4256 58.0172 24.5999 58.4272C24.822 58.9499 25.7129 59.9193 26.0582 60.0157C26.2984 60.0828 26.3031 60.0641 26.1832 59.6147C26.002 58.936 26.1962 58.5677 26.7821 58.4741C27.7574 58.3182 28.2996 58.1497 28.5946 57.9168L28.9019 57.6772L28.9592 58.3699C28.992 58.7528 29.1071 59.2307 29.2144 59.4272C29.5015 59.9526 29.3581 60.6846 28.928 60.8907C28.5546 61.0697 28.5122 61.2287 28.8134 61.3074C29.6097 61.5155 30.351 61.3255 30.9019 60.7709C31.0191 60.653 31.2098 60.5574 31.329 60.5574C31.5545 60.5574 32.6519 59.6631 32.6519 59.4793C32.6519 59.2379 33.6461 58.3971 34.1988 58.172C34.3625 58.1053 34.6043 58.0045 34.7353 57.948C35.8239 57.4786 39.0773 57.3041 41.1884 57.5991L42.1624 57.7345L43.2613 57.1772C44.5941 56.501 46.4367 55.3023 47.1936 54.6199C47.6184 54.237 47.7725 54.0059 47.8342 53.6407C47.8786 53.3778 48.1061 52.779 48.3394 52.3126L48.7613 51.4636L48.4749 51.2813C47.9024 50.9194 47.3261 50.2204 47.2457 49.7918C47.1604 49.3369 46.9772 49.2359 46.8499 49.5678C46.633 50.1328 45.4796 50.9532 44.2561 51.4168C42.4132 52.115 41.1247 52.1774 40.0009 51.6199C38.8447 51.0462 38.8514 51.0892 39.6988 50.2866C40.1102 49.8969 40.6214 49.4462 40.8342 49.2813C41.047 49.1165 41.2249 48.9388 41.2249 48.8907C41.2249 48.8426 40.9436 48.8826 40.5999 48.9741C40.2342 49.0713 39.5422 49.1265 38.9332 49.1095C37.9199 49.0811 37.8781 49.0902 37.5009 49.4428C36.96 49.9483 35.7693 50.8151 35.2717 51.0626C35.0426 51.1766 34.2811 51.4569 33.579 51.6876C32.8769 51.9183 32.0518 52.2383 31.7457 52.4011C31.4395 52.5639 31.0274 52.698 30.8342 52.698C30.3287 52.698 29.8798 52.1596 29.6259 51.2501C29.2264 49.8191 28.8367 49.2829 27.9957 49.0053C27.7406 48.9211 27.5321 48.7873 27.5321 48.7084C27.5321 48.5666 27.8977 48.0537 28.2509 47.698C28.46 47.4875 29.5338 46.7449 29.6311 46.7449C29.8288 46.7449 31.1877 45.2822 31.5061 44.7241C32.1307 43.6292 32.1992 43.3277 32.2926 41.3907C32.343 40.3448 32.4644 39.2385 32.5738 38.8386C32.6799 38.4506 32.7454 38.1091 32.7144 38.0782C32.6835 38.0473 32.3187 38.3624 31.9071 38.7813C31.4956 39.2003 30.7586 39.8851 30.2717 40.3022C29.4554 41.0014 28.2457 42.4194 28.2457 42.6772C28.2457 42.7375 28.1605 42.8579 28.0582 42.9428C27.8947 43.0785 27.8834 43.056 27.9488 42.7501C27.9898 42.5586 28.0507 42.268 28.0842 42.1043C28.2626 41.2341 29.0576 39.692 29.5582 39.2449C29.8803 38.9571 30.5486 37.9618 30.8759 37.2813C31.2694 36.4632 31.2743 36.4216 31.2769 34.8438C31.2795 33.3191 31.2642 33.1978 30.9332 32.4636C30.4992 31.501 30.5511 31.5526 30.2926 31.7865C30.1724 31.8953 30.0259 31.9845 29.9696 31.9845C29.7641 31.9845 28.9657 33.0182 28.6311 33.7136C28.4421 34.1065 28.2162 34.7479 28.1311 35.1407C28.0011 35.741 27.9597 35.809 27.8759 35.5834C27.821 35.4358 27.7238 34.9031 27.6571 34.3959C27.5905 33.8888 27.4267 33.0693 27.2926 32.5782C26.6048 30.0594 26.5706 29.1812 27.1259 28.1199C28.0437 26.3656 28.2448 25.9053 28.4071 25.198C28.779 23.5777 28.7775 23.0636 28.3811 20.7813C28.1986 19.7309 27.386 18.1551 26.7249 17.573C26.215 17.124 25.9354 16.908 25.8238 16.9324ZM56.4124 17.3074C56.3345 17.3043 56.2649 17.3179 56.2144 17.349C55.8817 17.5547 56.1799 18.6345 56.829 19.5782C57.1771 20.0843 57.5217 21.2033 57.5217 21.8386C57.5217 22.3286 57.5607 22.4317 57.7874 22.5209C57.9347 22.5789 58.5121 22.7985 59.0686 23.0053C60.7809 23.6414 61.0223 23.7316 61.3707 23.9063C61.5561 23.9993 61.7571 24.0782 61.8186 24.0782C61.9425 24.0782 62.6778 24.4122 64.9019 25.4845C66.447 26.2293 66.7982 26.326 67.0634 26.0678C67.8387 25.3131 69.4178 24.4989 70.5999 24.2449C71.1836 24.1194 71.5686 23.9809 71.5686 23.8907C71.5686 23.6654 70.9863 23.0201 70.6051 22.823C70.4197 22.7271 70.1025 22.6511 69.8967 22.6511C69.6227 22.6511 69.5048 22.5859 69.4592 22.4115C69.4091 22.2198 69.2958 22.172 68.8811 22.172C68.598 22.172 68.3273 22.1147 68.2821 22.0418C68.2314 21.9596 67.9784 21.9283 67.6103 21.9636L67.0113 22.0209L66.6571 21.2345C66.4601 20.8013 66.2517 20.3148 66.1988 20.1511C66.1459 19.9874 65.9802 19.5038 65.829 19.0782C65.561 18.3239 65.5422 18.3022 65.0999 18.2657C64.7685 18.2384 64.4131 18.3462 63.7769 18.6563C63.2977 18.89 62.8374 19.1573 62.7561 19.2553C62.6748 19.3533 62.4944 19.4369 62.3551 19.4376C62.2158 19.4383 61.8379 19.5172 61.5165 19.6147C60.7352 19.8517 60.6265 19.8409 60.5009 19.5105C60.3393 19.0855 59.807 18.7188 59.3446 18.7188C58.9963 18.7188 58.9136 18.6625 58.7717 18.323C58.51 17.6966 58.2829 17.5648 57.8811 17.8022C57.5587 17.9926 57.5365 17.9924 57.2301 17.7084C56.9726 17.4698 56.6458 17.3166 56.4124 17.3074ZM64.8238 18.7188C65.0124 18.7188 65.3934 19.4392 65.6259 20.2397C65.7713 20.7403 65.7677 20.7545 65.3759 21.1043C65.1573 21.2994 64.7564 21.5668 64.4853 21.698C63.6491 22.1028 63.5641 22.0593 63.204 21.047C62.897 20.1838 62.9341 19.8675 63.3707 19.5001C63.8046 19.135 64.5747 18.7188 64.8238 18.7188ZM64.5738 19.4324C64.3939 19.4324 63.8177 19.7815 63.6832 19.9688C63.553 20.1502 63.5739 20.574 63.7301 20.9168C63.8189 21.1116 63.9632 21.2188 64.1363 21.2188C64.4474 21.2188 65.1363 20.6851 65.1363 20.4428C65.1363 20.1483 64.7384 19.4324 64.5738 19.4324ZM35.704 20.047C35.2964 20.0481 35.1511 20.2355 34.8967 20.7449C34.6555 21.2278 34.5912 21.2807 34.3238 21.2136C33.2914 20.9546 32.9268 20.997 32.5269 21.422C32.1806 21.7901 31.9724 22.3267 31.8759 23.099C31.7978 23.7238 31.7731 23.7651 31.329 23.9428C31.0728 24.0453 30.7882 24.1303 30.6988 24.1303C30.3318 24.1303 30.095 24.7518 30.0946 25.7084C30.0943 26.4774 30.0566 26.644 29.8863 26.698C29.7738 26.7337 29.6253 26.9562 29.5582 27.198C29.4014 27.7627 29.4069 27.7822 29.6155 28.4845C29.8319 29.2133 30.3625 29.838 30.8863 29.9688C31.5188 30.1268 32.1632 29.9813 32.9176 29.5157C33.8894 28.9159 34.3813 28.2197 33.553 28.6147C33.1727 28.796 33.1216 28.7943 32.8394 28.6095C32.6325 28.4739 32.3299 28.4193 31.8915 28.4376C31.1512 28.4686 30.9377 28.3373 30.7405 27.7397C30.5829 27.2622 30.6347 27.1578 30.9436 27.323C31.0638 27.3873 31.4919 27.4996 31.8915 27.5782C32.7558 27.7482 34.0994 27.5872 34.4488 27.2709C34.662 27.078 34.6538 27.0638 34.2092 26.8438C33.9285 26.7049 33.6893 26.4764 33.5999 26.2605C33.4249 25.8383 33.0577 25.5574 32.6832 25.5574C32.2774 25.5574 31.9384 25.1464 31.9384 24.6616C31.9384 24.4324 31.9927 24.2449 32.0582 24.2449C32.1237 24.2449 32.1728 24.2941 32.1728 24.3543C32.1728 24.5308 32.9519 24.9636 33.2717 24.9636C33.4519 24.9636 33.7566 25.1458 34.0634 25.4376C34.5971 25.9453 35.0383 26.0409 35.6936 25.7918L36.0165 25.672L35.5842 25.2501C35.2954 24.9696 35.1519 24.7228 35.1519 24.5053C35.1519 24.2599 35.0708 24.151 34.8238 24.0574C34.5823 23.9659 34.4414 23.7765 34.2874 23.3438C34.0407 22.6512 34.0286 22.2392 34.2457 21.9532C34.4742 21.6522 34.5151 21.6916 34.6051 22.2553C34.7117 22.9234 34.9383 23.2391 35.5009 23.5261C35.8353 23.6967 35.9862 23.8631 36.0426 24.1199C36.1393 24.5602 36.6726 25.0263 37.2978 25.2136C37.8302 25.3731 38.0034 25.2898 37.803 24.9688C37.7281 24.8489 37.6338 24.5595 37.5894 24.323C37.5267 23.9888 37.5466 23.8742 37.6936 23.8178C37.7976 23.7779 37.9936 23.5735 38.1259 23.3595C38.4316 22.8649 38.4757 21.4229 38.1884 21.3126C38.0902 21.2749 38.0061 21.178 38.0061 21.099C38.0061 20.729 37.33 20.3118 36.4592 20.1459C36.1322 20.0836 35.8893 20.0464 35.704 20.047ZM38.6259 20.7293C38.6013 20.7293 38.579 20.7464 38.579 20.7709C38.579 20.7955 38.5619 20.8178 38.5374 20.8178C38.5043 20.8178 38.4905 20.854 38.4905 20.9532C38.4905 21.0524 38.5043 21.0834 38.5374 21.0834C38.5704 21.0834 38.579 21.1196 38.579 21.2188C38.579 21.318 38.5928 21.3543 38.6259 21.3543C38.6557 21.3543 38.6676 21.3833 38.6676 21.4428C38.6676 21.5023 38.6847 21.5313 38.7144 21.5313C38.7492 21.5313 38.7561 21.5695 38.7561 21.7084C38.7561 21.8473 38.7683 21.8907 38.803 21.8907C38.8398 21.8907 38.8499 21.9453 38.8499 22.2032C38.8499 22.4612 38.8547 22.5157 38.8915 22.5157C38.9161 22.5157 38.9384 22.5328 38.9384 22.5574C38.9384 22.5819 38.9555 22.6043 38.9801 22.6043C39.0046 22.6043 39.0269 22.6214 39.0269 22.6459C39.0269 22.6757 39.056 22.6928 39.1155 22.6928C39.175 22.6928 39.204 22.7047 39.204 22.7345C39.204 22.7642 39.233 22.7813 39.2926 22.7813C39.3521 22.7813 39.3811 22.7985 39.3811 22.8282C39.3811 22.8528 39.4034 22.8699 39.428 22.8699C39.4525 22.8699 39.4749 22.8922 39.4749 22.9168C39.4749 22.9413 39.492 22.9584 39.5165 22.9584C39.5411 22.9584 39.5634 22.9807 39.5634 23.0053C39.5634 23.0384 39.5944 23.047 39.6936 23.047C39.7928 23.047 39.829 23.0384 39.829 23.0053C39.829 22.9807 39.8119 22.9584 39.7874 22.9584C39.7817 22.9584 39.7765 22.9553 39.7717 22.9532C39.7754 22.9447 39.7822 22.934 39.7822 22.922C39.7822 22.9114 39.7589 22.8673 39.7301 22.8074C39.7294 22.8062 39.7307 22.8034 39.7301 22.8022C39.7287 22.7997 39.7264 22.799 39.7249 22.797C39.703 22.752 39.6748 22.6938 39.6415 22.6303C39.64 22.6274 39.6379 22.6229 39.6363 22.6199C39.614 22.5773 39.5843 22.5224 39.5582 22.4741C39.5532 22.4524 39.5446 22.4336 39.5322 22.4272C39.5119 22.39 39.4967 22.3571 39.4749 22.3178C39.4717 22.2742 39.4566 22.2477 39.4332 22.2449C39.4255 22.2312 39.4202 22.2223 39.4124 22.2084C39.4014 22.189 39.3919 22.175 39.3811 22.1564C39.3811 22.0968 39.3692 22.0678 39.3395 22.0678C39.3355 22.0678 39.3325 22.0636 39.329 22.0626C39.3195 22.0468 39.3071 22.0308 39.2978 22.0157C39.2954 22.0041 39.2926 21.9953 39.2926 21.9793C39.2926 21.9198 39.2807 21.8907 39.2509 21.8907C39.2212 21.8907 39.2041 21.8565 39.2041 21.797C39.2041 21.7375 39.1922 21.7085 39.1624 21.7085C39.1326 21.7085 39.1155 21.6794 39.1155 21.6199C39.1155 21.5604 39.0984 21.5314 39.0686 21.5314C39.0389 21.5314 39.027 21.5024 39.027 21.4428C39.027 21.3833 39.0099 21.3543 38.9801 21.3543C38.9503 21.3543 38.9384 21.3253 38.9384 21.2657C38.9384 21.2062 38.9213 21.172 38.8916 21.172C38.8618 21.172 38.8499 21.143 38.8499 21.0835C38.8499 21.0239 38.8328 20.9949 38.803 20.9949C38.7733 20.9949 38.7561 20.9659 38.7561 20.9064C38.7561 20.8468 38.7442 20.8178 38.7145 20.8178C38.6899 20.8178 38.6676 20.7955 38.6676 20.771C38.6676 20.7464 38.6504 20.7293 38.6259 20.7293ZM20.9696 20.9115C21.1198 20.9115 22.7608 22.6633 22.9019 22.974C23.056 23.3133 23.1998 23.5496 23.8134 24.4636C24.0912 24.8775 24.3186 25.2376 24.3186 25.2657C24.3186 25.3986 24.0624 25.2369 23.0894 24.4845C21.9226 23.5822 21.5714 23.177 21.1519 22.2501C20.8691 21.6251 20.7712 20.9115 20.9696 20.9115ZM26.9592 21.3386C27.0898 21.3523 27.2944 22.3369 27.3759 23.3647C27.4672 24.5161 27.2588 25.3234 26.6103 26.297C25.8319 27.4655 25.7904 27.4767 25.8342 26.474C25.8832 25.3547 26.0633 24.2397 26.3342 23.3543C26.4544 22.9614 26.6168 22.3743 26.6936 22.047C26.7704 21.7196 26.8783 21.4045 26.9332 21.349C26.9411 21.341 26.9505 21.3377 26.9592 21.3386ZM56.6936 23.0782C56.3782 23.085 56.0611 23.1939 55.5269 23.4115C55.0454 23.6078 54.5772 23.7709 54.4905 23.7709C54.4037 23.7709 54.1462 23.9514 53.9124 24.172C53.5981 24.4684 53.4853 24.6734 53.4853 24.9532C53.4853 25.3055 53.0261 25.9115 52.7613 25.9115C52.5663 25.9115 51.2441 26.8669 50.9436 27.224C50.7076 27.5045 50.6259 27.7296 50.6259 28.1251C50.6259 28.4147 50.6517 28.6511 50.6832 28.6511C50.7147 28.6511 51.0333 28.4636 51.3915 28.2345C51.7498 28.0053 52.0783 27.8178 52.1207 27.8178C52.163 27.8178 52.3675 27.7429 52.5738 27.6511C53.174 27.3842 53.7249 27.2273 53.7249 27.323C53.7249 27.3716 53.4682 27.6081 53.1571 27.849C51.6139 29.0446 51.1062 29.6661 51.1051 30.3543C51.1037 31.1665 51.7426 32.1043 52.2978 32.1043C52.5455 32.1043 52.6915 32.2232 52.9488 32.6303C53.4079 33.3566 54.2133 33.7521 53.8499 33.073C53.6453 32.6909 53.6938 32.0199 53.9436 31.7813C54.0662 31.6642 54.255 31.3998 54.3603 31.1928C54.924 30.0838 56.3899 29.9198 56.9696 30.9011C57.2458 31.3686 57.53 32.6282 57.5321 33.4011C57.535 34.4475 57.1805 34.8371 55.7717 35.3647C55.1034 35.6149 54.8279 35.6083 54.678 35.3282C54.4949 34.9861 54.5298 34.5888 54.7821 34.0938C55.0229 33.6215 54.9866 33.5823 54.4905 33.7709C54.097 33.9205 53.7907 34.2757 53.4801 34.9324C53.3484 35.2107 53.2178 35.4376 53.1884 35.4376C53.0592 35.4376 52.7717 34.7002 52.7717 34.3699C52.7717 33.9561 52.6992 33.9247 52.3915 34.2032C52.1104 34.4576 52.0817 35.8643 52.3499 36.2188C52.5354 36.4642 52.6044 37.6423 52.4384 37.7449C52.3854 37.7776 52.0244 37.6438 51.6363 37.448C49.5571 36.3992 47.1042 36.381 45.0061 37.3959L44.3759 37.698L43.6624 36.9532C42.527 35.7743 41.3117 34.1678 40.9019 33.297C40.8557 33.1988 40.6681 32.8961 40.4853 32.6251C39.9882 31.8885 39.4985 30.8264 39.2717 29.9949C39.095 29.3467 39.0929 29.2121 39.2405 28.922C39.4731 28.4648 39.7926 27.117 39.7926 26.6043C39.7926 26.3711 39.7137 25.9555 39.6155 25.6772C39.5173 25.3988 39.4384 24.9107 39.4384 24.5938C39.4384 24.1461 39.3882 23.9917 39.2092 23.8959C38.8926 23.7264 38.6051 23.7411 38.6051 23.9272C38.6051 24.0123 38.5359 24.1474 38.454 24.2293C38.3632 24.3201 38.3082 24.7022 38.3082 25.2136C38.3082 25.9875 38.2788 26.0735 37.9644 26.3438C37.6778 26.5904 37.5487 26.6252 37.1311 26.5626C36.7221 26.5013 36.5972 26.5355 36.4124 26.7397C36.2891 26.8758 36.0636 26.9845 35.9124 26.9845C35.6343 26.9845 35.3221 27.3765 35.4436 27.573C35.4795 27.631 35.2755 27.9151 34.9905 28.2084C34.6976 28.5097 34.4394 28.9066 34.3967 29.1199C34.3062 29.5726 34.1554 29.7362 33.5374 30.0522C33.2796 30.184 32.918 30.4345 32.7353 30.6043C32.2996 31.009 32.4201 31.2339 33.329 31.7188C34.2327 32.201 34.7785 32.8182 35.0374 33.6459C35.0899 33.8141 35.25 34.2441 35.3915 34.6043C35.533 34.9644 35.6916 35.4182 35.7457 35.6147C35.8393 35.9547 35.951 36.2854 36.2874 37.2241C36.3695 37.4532 36.529 37.986 36.6415 38.4116C36.852 39.2079 36.937 39.5048 37.4853 41.323C37.8298 42.4654 38.1221 43.9473 38.1259 44.573C38.1272 44.7858 38.1741 44.9636 38.2301 44.9636C38.4036 44.9636 39.4849 43.7508 40.0321 42.9428C40.6296 42.0606 40.9243 41.7002 41.7561 40.8595C42.7791 39.8255 43.157 39.5506 44.3759 38.9532C44.9963 38.6492 45.1551 38.528 45.0009 38.4688C44.5698 38.3034 44.8055 38.1554 45.4176 38.2084C46.4261 38.2959 47.7696 38.8823 48.8707 39.7136C49.7007 40.3403 51.128 40.9785 51.9436 41.0938C52.6749 41.1972 53.7568 41.1958 54.0946 41.0886C54.415 40.987 54.3806 41.2692 53.9905 41.9532C53.0532 43.5965 52.8297 44.3195 52.8342 45.6772C52.8377 46.7109 52.8712 46.8757 53.2301 47.6095C53.6449 48.4577 54.2478 49.0614 54.8551 49.2397C55.4291 49.4082 55.4496 49.3935 55.4801 48.7657C55.5225 47.8906 55.9346 47.195 57.1363 45.9741C58.1635 44.9304 59.4384 42.961 59.4384 42.4168C59.4384 42.1567 59.9133 41.3887 60.0738 41.3907C60.1492 41.3917 60.413 41.5643 60.6624 41.7761L61.1155 42.1616L60.9332 42.8751C60.3378 45.1516 61.2184 47.2084 62.9176 47.5105C63.6198 47.6354 64.2484 47.4066 64.7301 46.8439C65.2278 46.2623 65.2658 46.0434 64.8655 46.1199C64.1291 46.2607 63.6776 45.5471 63.6728 44.2449C63.6697 43.4042 63.6982 43.293 64.2196 42.3386C64.6307 41.5863 64.7993 41.1384 64.8603 40.5991L64.9384 39.8751L64.3863 39.448C63.7875 38.9908 63.0132 38.0916 63.0113 37.8491C63.0096 37.6235 62.7957 37.6679 62.3759 37.9845C61.4129 38.7105 59.8915 39.3742 58.6311 39.6147C58.0413 39.7272 57.7336 39.7244 57.1676 39.6043C56.7738 39.5207 56.4317 39.4129 56.4019 39.3647C56.3721 39.3165 56.4663 39.1501 56.6155 38.9949C57.4414 38.1353 58.1814 36.8067 58.5269 35.5574C58.931 34.0967 58.9809 33.8089 59.079 32.5366C59.292 29.775 59.9378 28.3491 61.2613 27.7084C62.1377 27.2842 62.2847 27.3846 61.6311 27.9584C60.5537 28.9044 60.0653 30.107 59.9696 32.0366C59.8153 35.1492 59.3195 36.9423 58.2301 38.3178C58.0279 38.5731 57.8909 38.812 57.928 38.8491C57.9651 38.8861 58.2483 38.8296 58.5582 38.7241C58.868 38.6185 59.2002 38.5313 59.2926 38.5313C59.5411 38.5313 61.5864 37.5231 61.9853 37.2032C62.1747 37.0513 62.5412 36.7467 62.803 36.5313L63.2821 36.1407L63.4801 36.7345C63.7463 37.5209 64.3366 38.2605 65.2092 38.9116C66.1209 39.5917 66.8122 40.0065 66.8967 39.922C66.933 39.8857 66.8612 39.5963 66.7405 39.2813C66.5801 38.8629 66.5227 38.4014 66.5269 37.5678C66.5328 36.3978 66.5784 36.2222 67.204 34.8543C68.2329 32.6046 68.2865 30.0866 67.3499 27.9636C67.1343 27.4751 67.0344 27.4061 65.0894 26.3907C63.4872 25.5542 59.8049 23.9725 58.9019 23.7345C58.771 23.7 58.2962 23.5338 57.8446 23.3647C57.3242 23.1698 57.009 23.0714 56.6936 23.0782ZM57.9644 24.8595C58.3116 24.8668 58.3384 24.9741 58.0686 25.198C57.7851 25.4333 57.8491 25.9883 58.1988 26.3126L58.5113 26.599L57.8134 26.7293C57.4301 26.8028 56.9674 26.8971 56.7874 26.9376C56.5083 27.0003 56.4592 26.9751 56.4592 26.7553C56.4592 26.4123 56.1564 25.843 55.928 25.7553C55.8273 25.7167 55.7457 25.6347 55.7457 25.573C55.7457 25.3627 56.772 24.9628 57.5113 24.8855C57.6991 24.8659 57.8487 24.857 57.9644 24.8595ZM77.3811 25.3803C75.5487 25.3961 73.6635 26.3374 72.5634 27.8074C71.3132 29.4779 70.7316 31.8397 70.7353 35.2397C70.7384 38.1338 71.0714 40.4377 71.9905 43.9376C72.5118 45.9227 73.0632 47.6817 73.5946 49.0574C73.7338 49.4175 73.8908 49.8468 73.9436 50.0105C73.9964 50.1742 74.0911 50.4406 74.1571 50.6043C74.2232 50.7679 74.3721 51.1429 74.4853 51.4376C74.7314 52.0781 74.8093 52.2699 75.1363 53.0418C75.6521 54.2592 75.5644 55.5714 74.928 56.2761C74.1812 57.1031 73.2502 57.2342 72.0946 56.6668C71.512 56.3807 70.2063 55.1556 68.9488 53.7241C68.1789 52.8476 67.5865 52.4563 66.0374 51.797C64.1452 50.9916 63.7638 50.7504 62.3551 49.4897C61.4306 48.6623 60.6402 47.6803 60.3394 46.9741C60.0078 46.1953 59.7552 44.8713 59.829 44.323C59.867 44.0409 59.8441 43.8178 59.7821 43.8178C59.7211 43.8178 59.4282 44.1919 59.1311 44.6511C58.834 45.1103 58.196 45.9541 57.7144 46.5261C56.4257 48.0569 56.1096 48.8824 56.3811 49.9793L56.4749 50.3647H55.8551C54.5476 50.3647 53.0356 49.2761 52.3603 47.8438C52.1845 47.4711 51.9825 47.1268 51.9124 47.0834C51.736 46.9744 51.2329 47.4694 50.9384 48.0418C50.757 48.3943 50.6953 48.741 50.6988 49.3647C50.7038 50.254 50.8247 50.5839 51.4801 51.5418C51.7679 51.9625 51.8002 52.0815 51.6676 52.172C51.4911 52.2923 49.9724 52.2334 49.6363 52.0938C49.4761 52.0273 49.3804 52.1208 49.1988 52.5261C48.9694 53.0382 48.5894 54.2239 48.5894 54.4272C48.5894 54.5743 48.3009 54.8449 47.3394 55.5991C46.8824 55.9576 46.4677 56.3058 46.4228 56.3699C46.2175 56.6629 47.6523 58.3312 48.4696 58.7501C49.0275 59.036 49.9833 59.29 50.4957 59.2918C51.3213 59.2946 52.8295 58.8783 53.8967 58.3543C55.1034 57.7618 55.8084 57.6058 57.0165 57.6511C57.9936 57.6878 58.2779 57.7436 58.8394 58.0261C59.6223 58.42 60.4446 59.1877 61.0061 60.047C61.7519 61.1882 61.8289 61.5215 61.9332 64.0574C62.0471 66.8281 62.2124 68.0404 62.7092 69.6407C62.7992 69.9307 62.8759 70.6136 62.8759 71.1563C62.8759 72.1253 62.8684 72.1482 62.4592 72.5574C62.2301 72.7866 62.0426 73.0135 62.0426 73.0574C62.0426 73.1013 62.386 73.1069 62.8082 73.073C63.6365 73.0065 64.0084 72.791 64.553 72.0626C64.7107 71.8516 64.8763 71.679 64.9228 71.6772C65.1376 71.6688 65.2936 72.6486 65.178 73.2865C65.1129 73.6454 65.0792 73.9376 65.1051 73.9376C65.4491 73.9376 66.3387 73.0531 66.6988 72.3542L66.9332 71.9011L67.3759 72.2449C67.6185 72.4334 68.147 72.789 68.553 73.0365C70.0788 73.9668 70.4487 74.4333 70.7978 75.8438C71.0937 77.0396 70.9646 78.3734 70.4488 79.3699C70.1769 79.8952 69.2018 80.7721 68.5165 81.1095C67.7463 81.4886 66.9778 81.7198 66.7717 81.6407C66.6801 81.6056 66.5097 81.2231 66.3915 80.7865C66.2025 80.0882 66.1206 79.9558 65.704 79.6928C65.0151 79.2579 64.5247 79.2088 64.0113 79.5261C63.778 79.6703 63.5894 79.8251 63.5894 79.8699C63.5894 79.9146 63.3082 80.0514 62.9644 80.172C61.8612 80.5587 61.0904 81.334 61.0894 82.0626V82.3959L61.4696 82.198C62.1966 81.8221 63.0084 81.9872 63.7405 82.6667C64.1055 83.0056 64.1579 83.224 63.8811 83.224C63.5761 83.224 62.8384 83.6533 62.4592 84.0522C62.1335 84.3948 62.0984 84.5034 62.0842 85.297C62.0757 85.7755 62.0029 86.3666 61.9228 86.6095C61.7996 86.9827 61.8108 87.1396 61.9853 87.6095C62.1725 88.1135 62.8026 88.9376 63.0009 88.9376C63.045 88.9376 63.1453 88.7062 63.2249 88.422C63.3044 88.1378 63.4894 87.7609 63.6311 87.5886C63.8599 87.3105 63.943 87.284 64.4019 87.349L64.9228 87.422L64.8446 87.9376C64.6836 89.0118 65.2305 89.857 66.2769 90.1459C66.5222 90.2136 66.9174 90.389 67.1519 90.5365C67.3865 90.6841 67.7911 90.8637 68.053 90.9324C68.3149 91.0011 68.5784 91.061 68.6363 91.0678C68.8886 91.0973 69.6732 90.7844 69.8551 90.5834C70.0457 90.3728 70.0322 90.3647 69.5165 90.3647C68.8363 90.3647 68.4071 90.0466 68.2978 89.4636C68.226 89.0811 68.2684 88.9865 68.678 88.5417C68.9298 88.2683 69.337 87.6273 69.5842 87.1199L70.0321 86.198H70.7821C71.3052 86.198 71.5801 86.1452 71.6832 86.0209C71.854 85.8151 72.1231 85.7834 72.1832 85.9636C72.2058 86.0315 72.4377 86.1607 72.6988 86.2501C73.1258 86.3962 73.1752 86.46 73.2092 86.8595C73.2301 87.1038 73.1906 87.3572 73.1207 87.4272C72.7538 87.794 73.3068 87.7777 74.0061 87.4011C74.6568 87.0507 74.9429 86.5175 75.053 85.4428C75.0921 85.0612 75.2105 84.6182 75.3186 84.4532C75.4595 84.2381 75.5034 83.9548 75.4749 83.4584C75.4374 82.809 75.4576 82.7531 75.7926 82.4949C76.2205 82.1649 76.4235 81.9052 76.7561 81.2761L77.0061 80.8022L77.8499 80.8282C78.7327 80.8568 79.1749 80.7169 79.5738 80.2761C79.7802 80.0481 79.7764 80.0354 79.4176 79.9636C79.2146 79.923 78.8887 79.7265 78.6884 79.5261C78.3663 79.204 78.3295 79.1039 78.3811 78.6459C78.4194 78.306 78.5478 78.0093 78.7561 77.7865C79.184 77.3289 79.6494 76.3259 79.7405 75.6615C79.7858 75.3309 79.8633 75.143 79.9436 75.1772C80.4268 75.3825 80.9818 75.5073 81.1363 75.448C81.2875 75.39 81.2489 75.2442 80.9071 74.5886C80.6719 74.1373 80.4957 73.6243 80.4957 73.3907C80.4957 72.9201 80.4812 72.9285 80.928 73.1615C81.1155 73.2593 81.3357 73.3383 81.4176 73.3386C81.5881 73.3395 81.6197 73.0316 81.4592 72.9324C81.4004 72.896 81.2168 72.4505 81.053 71.9428C80.1687 69.2027 79.3261 68.2307 77.8238 68.224C77.1502 68.221 76.0297 67.9477 75.2769 67.599C74.7644 67.3616 73.7092 66.4599 73.7092 66.2605C73.7092 66.2034 73.6376 66.0722 73.553 65.9688C73.4684 65.8655 73.3116 65.4852 73.204 65.1251C73.0964 64.765 72.8906 64.0693 72.7457 63.5782C72.3208 62.1383 71.771 61.0442 71.2144 60.5313C69.936 59.3533 68.7848 58.1016 68.8863 58.0001C68.9173 57.9691 69.0422 58.0372 69.1624 58.1459C69.2825 58.2546 69.4401 58.3438 69.5113 58.3438C69.5825 58.3438 69.6614 58.386 69.6832 58.4376C69.7511 58.5982 71.3595 59.609 71.9696 59.8751C73.0391 60.3414 74.7431 60.1594 75.7926 59.4688C77.3605 58.4371 78.5962 56.7907 78.7665 55.5105C78.8674 54.7521 78.7463 53.5567 78.5374 53.2709C78.3994 53.0823 78.3613 53.1027 78.1728 53.5001C77.8432 54.1946 77.7461 54.0973 77.5894 52.9272C77.4991 52.2523 76.9198 50.5269 76.2717 48.9949C75.3816 46.8909 75.2998 46.6754 74.7978 45.2449C74.3608 43.9997 74.197 43.4255 73.5374 40.7501C72.2605 35.5713 72.6748 30.4638 74.5217 28.5417C75.9377 27.0681 78.2198 26.8377 79.3082 28.0626C79.8099 28.6272 79.8221 28.7855 79.3811 29.2397C78.6685 29.9734 78.4347 31.2167 78.7301 32.6876C78.9065 33.5662 78.7014 34.9491 78.2821 35.7084C78.123 35.9966 78.0131 36.2571 78.0426 36.2865C78.1345 36.3785 79.1522 35.8254 79.5426 35.4688C79.7472 35.2819 79.9357 35.1251 79.9644 35.1251C79.9931 35.1251 80.0165 35.2791 80.0165 35.4636C80.0165 35.9964 80.3705 37.0584 80.6884 37.4793C80.9301 37.7993 82.0334 38.4584 82.3238 38.4584C82.3683 38.4584 82.3182 38.2889 82.2092 38.0782C81.8024 37.2915 81.4012 35.1251 81.6624 35.1251C81.7147 35.1251 81.8212 35.3081 81.9019 35.5313C82.1302 36.1627 82.8683 37.2156 83.2353 37.4324C83.7809 37.7547 83.8477 37.6765 83.5947 37.0105C83.2353 36.0648 83.1813 35.2186 83.4072 33.9376C83.7369 32.067 83.7815 30.5921 83.5269 29.922C83.2165 29.1047 82.9059 28.7353 82.2561 28.4115C81.8622 28.2153 81.5562 27.9359 81.2769 27.5209C80.3646 26.1652 79.226 25.4792 77.7457 25.3907C77.6242 25.3834 77.5033 25.3792 77.3811 25.3803ZM21.0321 27.9376C21.4561 27.9376 22.6547 28.8366 23.3655 29.6876C23.939 30.3741 24.7926 31.6248 24.7926 31.7761C24.7926 31.8923 24.6672 31.8826 24.4384 31.7501C24.3402 31.6932 24.1772 31.6153 24.079 31.5782C23.4583 31.3441 22.6351 30.4571 21.7092 29.0365C21.3145 28.4309 21.0081 27.9376 21.0321 27.9376ZM30.1519 33.5938C30.2872 33.5938 30.3391 33.766 30.3655 34.3126C30.3943 34.9097 30.3377 35.176 30.0321 35.8595C29.8291 36.3138 29.4437 37.0232 29.178 37.4324C28.9122 37.8416 28.669 38.1772 28.6363 38.1772C28.5108 38.1772 28.7498 36.5348 28.9749 35.8543C29.3298 34.7808 29.9485 33.5938 30.1519 33.5938ZM23.2926 36.0366C23.5729 36.004 25.0895 37.0448 25.6051 37.6616C25.9275 38.0473 26.4584 39.0912 26.4592 39.3386C26.4599 39.5497 24.9414 38.453 24.2561 37.7501C23.9625 37.449 23.2457 36.2681 23.2457 36.0834C23.2457 36.0554 23.2636 36.0399 23.2926 36.0366ZM46.0009 39.2084C44.9936 39.1919 43.0646 40.4828 41.6415 42.1251C40.8692 43.0163 40.7457 43.173 40.7457 43.2866C40.7457 43.3458 40.7062 43.4106 40.6571 43.4324C40.5456 43.482 40.0321 44.2097 40.0321 44.3178C40.0321 44.4535 38.9087 45.5489 38.7665 45.5522C38.6927 45.5539 38.5736 45.6261 38.5009 45.7136C38.1688 46.1138 36.6972 46.2334 35.4801 45.9584C34.99 45.8477 35.0567 46.1597 35.6571 46.7761C36.1507 47.2828 36.4399 47.5017 37.2926 47.9949C37.8975 48.3448 40.1715 48.325 41.5113 47.9584C42.6709 47.6412 42.6439 47.642 42.5686 47.9688C42.4121 48.6475 41.9475 49.3733 41.1988 50.1147C40.359 50.9462 40.3568 50.9869 41.1051 51.0678C41.3342 51.0926 41.576 51.122 41.6415 51.1303C42.1677 51.1973 43.4642 50.8783 44.2613 50.4897C45.1797 50.042 46.5303 48.8852 46.9957 48.1459C47.2637 47.7202 47.3773 47.7301 47.4801 48.198C47.732 49.3453 48.983 50.7787 50.0061 51.0886L50.2717 51.1668L50.0217 50.5366C49.5074 49.2373 49.9409 47.6859 51.1571 46.4793C51.7021 45.9386 51.8088 45.7625 51.8811 45.2553C51.9858 44.5206 52.3406 43.4198 52.7196 42.6616C52.8778 42.3452 53.0061 42.0639 53.0061 42.0366C53.0061 42.0092 52.7899 41.9845 52.5217 41.9845C51.4959 41.9845 50.2396 41.498 48.7509 40.5261C47.4312 39.6646 46.4949 39.2165 46.0009 39.2084ZM30.2249 42.0157C30.3168 41.9864 30.3062 42.1651 30.1936 42.5991C30.1043 42.9432 30.0322 43.3358 30.0321 43.4688C30.032 43.8573 29.6439 44.7674 29.2874 45.2136C28.9739 45.606 28.2457 46.1339 28.2457 45.9688C28.2457 45.9259 28.3232 45.722 28.4176 45.5157C28.5119 45.3094 28.7548 44.7114 28.954 44.1876C29.3197 43.226 29.9806 42.0938 30.2249 42.0157ZM23.6988 42.6043C23.7127 42.6046 23.7285 42.6162 23.7457 42.6407C23.9824 42.9781 24.2609 43.7048 24.4957 44.6043C24.7618 45.6236 24.9748 46.1053 25.4071 46.6511C25.7544 47.0895 25.7352 47.1265 25.204 47.0209C24.8396 46.9485 24.1653 46.2738 23.9176 45.7345C23.648 45.1474 23.4908 42.5983 23.6988 42.6043ZM26.678 51.3491C26.9664 51.3418 27.2507 51.416 27.4853 51.5678C27.8087 51.7772 28.7673 53.3648 28.6676 53.5261C28.5284 53.7513 28.3683 53.6578 27.7561 53.0001C27.0473 52.2385 26.3464 51.9143 25.6624 52.0313L25.2092 52.1095L25.6259 51.7553C25.9242 51.4994 26.3071 51.3584 26.678 51.3491ZM26.9905 54.1459C27.0897 54.1414 27.1956 54.1444 27.3134 54.1511C28.2225 54.2031 28.1575 54.4613 27.1676 54.7188C26.4651 54.9016 25.4007 55.4871 25.2092 55.797C25.1018 55.9707 24.918 55.9391 24.8394 55.7345C24.7509 55.5036 25.5329 54.7115 26.1884 54.3699C26.4614 54.2276 26.6927 54.1594 26.9905 54.1459ZM56.6259 58.547C55.3902 58.5523 55.274 58.5768 54.5478 58.9428C53.7061 59.367 53.0743 59.8499 52.0426 60.8595C51.048 61.8326 50.3447 62.4482 49.5113 63.0834C48.4876 63.8637 47.7257 64.5637 46.7717 65.6043C46.387 66.0239 45.7353 67.2982 45.7353 67.6251C45.7353 67.9256 45.2947 69.1852 45.1155 69.4011C45.0047 69.5346 45.0106 69.5943 45.1363 69.672C45.3021 69.7744 45.5927 69.6912 46.204 69.3751L46.5582 69.198L46.678 69.6407C46.7442 69.8865 46.8799 70.3903 46.9801 70.7605C47.222 71.6543 47.2155 73.3279 46.9696 73.9845C46.7541 74.56 46.4187 75.2964 46.329 75.3855C46.2961 75.4182 46.1119 75.6744 45.9228 75.9532C45.1337 77.1163 43.3995 78.6197 41.9124 79.4272C41.4941 79.6543 41.4789 79.6554 41.1207 79.4376C40.7223 79.1953 40.6694 79.0737 40.5478 78.1824C40.3265 76.5609 39.1552 76.0425 37.4801 76.8178C37.0557 77.0142 36.6186 77.172 36.5113 77.172C35.8473 77.172 35.1371 77.9864 35.1363 78.7501C35.1358 79.2143 35.2527 79.3105 35.4801 79.0366C35.5532 78.9484 35.8353 78.778 36.1051 78.6563C36.5845 78.4402 36.6001 78.4411 36.7613 78.6615C36.852 78.7856 36.9228 79.0593 36.9228 79.2709C36.9228 79.8286 37.4717 80.3304 38.3551 80.5782C38.7794 80.6973 39.0686 80.8402 39.0686 80.9376C39.0686 81.1438 38.9784 81.1419 38.3551 80.922C37.2485 80.5315 36.1789 80.783 35.6571 81.5522C35.4015 81.9291 35.0276 82.6656 35.0217 82.8074C35.0195 82.8609 34.8739 83.0935 34.6988 83.323C34.2523 83.9084 34.1872 84.8084 34.5374 85.4949C34.8346 86.0776 35.0389 86.0801 35.1571 85.5001C35.2538 85.026 35.9282 84.3869 36.2092 84.5053C37.4776 85.0396 38.2134 85.1775 38.8446 85.0001C39.1445 84.9158 39.1565 84.9355 39.2301 85.4897C39.2734 85.8164 39.4036 86.1541 39.5269 86.2657C39.6467 86.3741 39.8187 86.6915 39.9071 86.9688C40.1976 87.8794 40.5886 88.346 41.5061 88.8647C42.2206 89.2686 42.6989 89.0269 42.1571 88.5365C41.9575 88.3559 41.9201 88.1989 41.9488 87.6563C41.9746 87.1699 42.031 86.993 42.1624 86.9845C42.2606 86.9781 42.5161 86.9632 42.7301 86.9532C43.2572 86.9286 43.8695 86.2804 44.1311 85.474C44.3844 84.6933 44.4581 84.6187 44.7717 84.7865C44.9735 84.8945 44.9983 84.9659 44.9019 85.1459C44.7081 85.5081 44.7631 86.1692 45.0113 86.474L45.2405 86.7553L45.3759 86.4011C45.4507 86.2056 45.6132 85.9468 45.7405 85.8282C46.0253 85.5628 46.8384 85.2657 47.2821 85.2657C47.685 85.2657 48.2906 84.6324 48.4124 84.0782C48.5086 83.6399 48.3884 82.6845 48.2249 82.5834C47.8696 82.3639 48.504 82.0628 50.1259 81.6772C51.616 81.3229 52.8205 80.7113 53.2874 80.073C53.6149 79.6252 53.7085 79.5756 54.3186 79.5001C54.6877 79.4544 55.14 79.3375 55.3186 79.2449C55.4972 79.1522 55.6955 79.0782 55.7613 79.0782C56.0054 79.0782 57.2821 78.2213 57.2821 78.0574C57.2821 77.9639 57.2102 77.8855 57.1259 77.8855C57.0416 77.8855 56.7901 77.731 56.5634 77.5417L56.1519 77.198L56.1832 75.6199L56.2196 74.0418L55.3186 72.1668C54.558 70.5764 54.4228 70.196 54.4228 69.672C54.4228 69.3032 54.5047 68.9188 54.6259 68.7136C54.8579 68.3208 55.4312 68.0076 55.928 68.0053C56.7028 68.0018 58.5277 67.2644 59.3863 66.6095C59.624 66.4282 60.0952 66.1454 60.428 65.9793L61.0321 65.6772L61.0686 64.1355C61.1188 61.9337 60.7887 60.9472 59.5946 59.7241C58.6078 58.7132 58.1744 58.5403 56.6259 58.547ZM28.2926 59.0782L27.6467 59.1147C26.7651 59.1661 26.6155 59.4172 27.0738 60.0626C27.1968 60.2357 27.1826 60.3359 27.0113 60.6355C26.6919 61.1945 26.7169 61.4321 27.2978 63.6459C27.364 63.8983 27.445 64.1795 27.4801 64.2709C27.5855 64.5456 27.3294 64.4554 27.1832 64.1668C26.1595 62.1459 24.8736 60.8134 23.3811 60.2293C22.8359 60.0159 21.2092 59.9494 21.2092 60.1407C21.2092 60.2017 21.3738 60.3681 21.5738 60.5105C22.0321 60.8368 22.3581 61.3618 22.9176 62.6772C23.3585 63.7138 23.8654 64.7041 24.3759 65.5209C24.9185 66.3891 26.2158 67.0997 27.8186 67.4116L28.5321 67.5522L29.1155 68.9376C29.4377 69.7011 29.8849 70.7278 30.1103 71.2188C31.1826 73.5549 31.1467 73.5109 32.1624 73.7918C32.457 73.8732 32.7777 73.9422 32.8759 73.948C33.1061 73.9616 34.6558 73.6543 34.928 73.5418C35.144 73.4524 35.2174 73.2449 35.0321 73.2449C34.9218 73.2449 32.7559 71.1377 32.3394 70.6251C31.4498 69.53 31.213 68.8028 31.454 67.9168C31.6323 67.2614 31.8291 66.9499 32.5374 66.2188C33.7679 64.9488 34.0475 64.4065 34.1467 63.1199C34.2332 61.9983 33.9768 59.3175 33.7821 59.3178C33.7101 59.3179 33.4787 59.5694 33.2665 59.8803C33.0544 60.1912 32.398 60.92 31.8134 61.5001C30.6008 62.7032 30.1166 63.5111 29.8655 64.7345L29.6936 65.5678L29.5738 65.0886C29.3171 64.1055 29.1545 63.4049 29.0634 62.8855C28.9249 62.0963 28.8382 61.9401 28.4905 61.8543C28.0348 61.7418 27.2821 61.2471 27.2821 61.0574C27.2821 60.9679 27.4548 60.8278 27.6676 60.7501C28.7035 60.372 28.7281 60.3384 28.4488 59.5261L28.2926 59.0782ZM32.0426 62.8855C32.108 62.8855 32.1624 63.119 32.1624 63.4011C32.1624 63.9457 31.6676 64.915 31.0478 65.5834C30.8754 65.7694 30.7353 65.9573 30.7353 66.0001C30.7353 66.0429 30.6499 66.1067 30.5478 66.1459C30.389 66.2069 30.3731 66.1389 30.4436 65.6563C30.5469 64.9488 30.9452 64.1479 31.4957 63.5366C31.7293 63.2771 31.9213 63.0232 31.9228 62.9741C31.9243 62.9249 31.9771 62.8855 32.0426 62.8855ZM25.2561 63.9584C25.3216 63.9584 25.3759 64.0116 25.3759 64.073C25.3759 64.2116 26.9373 65.8011 27.5738 66.3126C27.8321 66.5201 28.0196 66.7096 27.9905 66.7345C27.9228 66.7923 26.9717 66.4497 26.5061 66.198C25.8038 65.8183 25.1363 64.8733 25.1363 64.2605C25.1363 64.0936 25.1906 63.9584 25.2561 63.9584Z" fill="#A6B7D2"/>
</g>
<defs>
<clipPath id="clip0_640_497">
<rect width="100" height="100" fill="white"/>
</clipPath>
</defs>
</svg>
