<svg width="76" height="100" viewBox="0 0 76 100" fill="none" xmlns="http://www.w3.org/2000/svg">
<path fill-rule="evenodd" clip-rule="evenodd" d="M3.75166 1.24658H71.4737C74.4134 1.24658 74.7237 1.70182 74.7167 4.80755L74.5895 60.8928C74.5522 77.348 61.5048 97.082 36.627 97.202C18.0103 97.2921 0.634161 80.0736 0.699402 60.8928L0.890168 4.80755C0.902037 1.3181 0.761285 1.24658 3.75166 1.24658Z" fill="#D75531"/>
<path fill-rule="evenodd" clip-rule="evenodd" d="M9.03712 28.5972C10.6109 28.8448 12.4094 28.7392 13.9832 28.5073C14.7014 30.7649 20.2607 30.3328 24.0551 30.171C20.7727 31.0621 17.4864 31.9894 14.208 32.2393C11.2455 32.4652 9.19286 29.7269 9.03712 28.5972ZM5.88964 21.403C8.14382 22.0664 10.2888 22.4752 12.1846 22.3023C14.4553 24.5721 21.9675 23.9828 25.3141 26.3041C21.4811 25.5086 17.4438 26.0648 13.3986 26.3041C8.85608 26.5727 6.09807 23.1063 5.88964 21.403ZM3.77633 5.35083C6.31931 6.45014 8.95252 6.79546 11.735 7.41918C14.5124 11.0932 27.0549 11.2758 33.0929 18.4354C26.1535 15.1415 22.5856 14.9033 18.1042 14.4677C8.28434 13.5034 4.12589 8.86629 3.77633 5.35083ZM4.27094 13.4444L11.5551 15.2879C13.2694 18.5591 22.1964 17.3591 28.2817 21.9875C24.2168 21.1253 20.0512 20.2618 14.8375 20.189C7.08718 20.08 4.68086 15.8998 4.27094 13.4444ZM13.0389 34.5325C14.6276 34.636 16.2164 34.4586 17.8051 34.0828C18.975 35.726 22.4719 35.1646 25.8537 34.7123C23.1722 36.0285 20.374 37.1729 17.4454 37.1854C13.9555 37.2002 13.376 35.1932 13.0389 34.5325ZM16.8609 39.8832C17.5353 39.9078 21.0425 39.2121 21.0425 38.939C23.0244 40.6985 26.4613 39.6663 29.3609 39.2087C26.5131 40.4322 23.8775 42.0304 21.0425 41.9066C19.0514 41.8196 17.5203 41.0223 16.8609 39.8832ZM20.6657 7.54208C26.0681 9.63878 45.0792 16.2751 40.3782 20.1327C47.8463 17.8012 43.4983 13.7689 36.7729 10.9577C31.4693 8.74079 24.701 7.7427 20.6657 7.54208ZM39.6151 20.5142C33.337 22.4602 27.4663 25.2804 27.1517 29.9889C26.8563 34.4106 30.4959 35.3357 34.5916 34.5037C26.711 32.5595 34.4657 22.8978 39.6151 20.5142ZM35.2911 34.3129C38.8459 35.5423 33.8612 37.2804 30.9671 38.7006C32.689 38.5107 34.3284 38.2697 35.768 38.8277C33.321 39.612 31.6535 40.0895 30.1404 41.0533C28.0284 42.3987 26.2957 44.7424 23.0185 44.8051C21.5794 44.8326 20.6312 44.3292 19.839 43.7241C15.5688 45.085 8.89426 45.8733 3.6875 45.4728C5.15216 46.6727 4.96429 49.2496 7.47103 48.9066C11.622 48.3385 15.9794 46.1331 19.3939 47.285C14.5242 48.1755 11.7829 50.3353 5.59516 51.3229C7.55602 52.161 9.0284 53.9923 10.3643 53.7075C14.0043 52.9317 16.9669 48.7902 21.7785 48.8112C19.2779 50.6756 13.1516 55.0853 11.0638 56.5054C13.5477 56.7105 14.08 57.5816 15.4196 57.3639C18.0692 56.9332 20.1326 52.914 22.6052 50.5917C22.993 50.2274 24.0671 50.1149 25.1805 50.3373C26.4307 50.5871 26.4923 52.1194 26.3887 53.1352C27.5379 53.0761 29.1226 53.3543 28.8686 55.5198C28.1697 55.817 27.5625 56.1945 27.5333 57.0777C24.4023 58.9006 26.9292 61.3502 27.8512 61.3382C27.0018 60.2757 27.4944 59.4792 28.2963 59.049C28.4306 59.338 28.7366 59.4401 29.123 59.4305C30.0923 59.4072 30.0413 58.0929 31.0942 58.0315C32.3281 57.9597 32.2768 59.2435 33.5424 58.9536L33.7014 58.9854C33.9485 59.918 33.8992 60.8506 33.0496 61.7833C34.2406 61.4025 36.0249 60.8086 35.5773 58.5879C36.0329 58.8376 36.6053 58.8894 37.1034 58.5879C38.4386 59.355 37.7501 60.5584 37.3895 61.6084C38.464 60.8669 41.4487 58.9598 37.8346 56.6485C37.8709 56.0643 37.5795 56.178 37.3895 55.9331C35.5756 55.1917 33.0688 57.1717 32.8588 51.1799C32.8049 49.6414 32.657 47.5038 33.9239 46.6968C36.286 45.1923 38.7461 43.34 41.2049 41.4349C41.49 41.6404 41.682 41.9081 41.8407 42.1979C42.5804 39.8008 46.4076 36.161 48.0278 36.0434C50.1922 35.8863 51.3694 35.6257 51.5698 37.7467C52.3294 35.9418 53.5024 32.8762 50.298 32.7868C49.4979 32.7645 48.6977 32.8859 47.8976 32.6755C45.727 30.4179 41.8059 31.0794 38.4856 32.9491C37.5717 33.4637 36.6855 33.9986 35.2911 34.3129ZM47.373 33.1366C46.1371 32.9673 45.3859 32.9285 44.7022 33.0094C43.8274 33.1128 44.1036 34.7385 44.9248 34.7581C46.3652 34.7924 45.6674 33.8133 47.373 33.1366Z" fill="#FBFDFC"/>
<path fill-rule="evenodd" clip-rule="evenodd" d="M58.1847 24.0432C58.5858 23.6549 58.9064 23.0721 59.1386 22.0084C58.5469 20.7454 57.2315 16.1873 54.0515 16.6987C49.9184 17.3634 51.6924 21.8839 49.2505 24.3294C51.4549 24.6116 52.8649 21.4581 54.7192 21.3725C55.9588 21.3153 57.3154 22.5036 58.1847 24.0432ZM60.7601 21.5633C57.1107 17.0538 55.8163 12.3109 61.5231 6.87427C60.6938 11.1749 63.301 13.4908 63.2718 15.6495C63.2417 17.8828 62.0427 19.7538 60.7601 21.5633ZM63.2083 23.9796C62.791 23.5119 62.5897 22.6956 62.2544 21.8176C63.6559 19.1357 65.0877 16.3523 67.5323 16.6987C71.6266 17.2789 69.8163 21.8456 71.9835 24.075C69.044 24.5558 69.4351 21.5684 66.4831 21.4361C65.0185 21.3697 63.8792 23.0011 63.2083 23.9796ZM59.2975 24.9017C59.7851 24.3405 60.2726 23.4402 60.7601 22.5489C62.3354 24.5519 62.2809 26.9802 62.0637 28.7488C61.581 32.6789 59.6784 38.0805 60.4421 43.7557C59.5646 44.6669 59.0536 47.4112 58.5027 49.9556C58.3615 45.7482 58.0938 41.537 58.4073 37.3333C58.6695 33.8175 59.9273 31.3057 60.0924 27.0955C60.1426 25.8161 59.7334 25.2569 59.2975 24.9017ZM58.5663 63.3093L56.8812 63.2775L56.9128 58.4617C56.7528 57.3033 56.6607 52.0697 51.6669 51.7997C49.7435 51.8677 47.5847 52.8728 45.1808 52.9125C42.5952 52.9547 39.4989 50.8779 39.903 50.8141C40.7512 50.7615 41.6879 50.9241 42.3829 50.7187C46.032 49.6403 46.4284 46.6229 50.9992 46.7444C54.9065 46.8505 57.9573 49.4493 58.4709 56.0284L58.5663 63.3093ZM59.9652 63.4047C60.8505 63.3193 61.566 63.5732 62.2862 63.818L62.2226 55.7422C62.1896 51.1853 63.4476 48.1795 65.4618 45.2987C68.1146 41.5045 70.4362 38.1473 70.203 34.0267C70.094 32.1002 69.7076 28.96 69.6625 29.3211C68.3021 35.7433 66.1873 36.5184 64.1939 39.2727C61.3678 43.1776 59.9137 48.0921 59.9334 53.9617L59.9652 63.4047Z" fill="#FDFDFB"/>
<path fill-rule="evenodd" clip-rule="evenodd" d="M9.66407 68.5237C16.0234 61.1778 38.1276 62.4294 45.4645 65.0899C39.8192 66.9731 32.8546 71.6426 23.4628 71.9575C16.7471 72.1805 12.5405 70.371 9.66407 68.5237ZM5.78516 70.6857C5.78516 70.6857 12.896 75.525 23.8444 75.5184C33.793 75.5125 45.9446 66.9464 55.8931 66.9976C61.1485 67.0243 69.7554 69.9226 69.7554 69.9226C69.2939 71.5336 68.583 73.1445 67.7842 74.7554C67.7842 74.7554 59.1277 71.8806 55.3844 71.8939C46.0983 71.9269 34.5903 79.4298 25.3069 79.2066C13.3482 78.9206 5.78516 70.6857 5.78516 70.6857ZM9.34612 76.981C9.34612 76.981 19.1473 82.6546 27.0874 82.704C35.6806 82.7578 45.9677 76.1404 55.0028 76.2815C57.995 76.3282 64.8347 78.6099 65.0499 78.8251C64.1723 80.3491 62.9811 81.7946 61.4253 83.1491C61.4253 83.1491 57.3364 81.0908 53.9218 81.1143C46.3147 81.1666 39.4689 86.1405 29.0586 86.2013C15.8972 86.2788 9.34612 76.981 9.34612 76.981ZM19.266 86.9644C19.266 86.9644 26.1003 92.9252 38.2154 92.8146C50.1019 92.7055 56.9741 86.8372 56.9741 86.8372C56.9741 86.8372 54.8385 85.1724 53.1588 85.2475C46.4197 85.5488 40.7633 89.8253 31.1571 89.8895C25.3214 89.9282 19.266 86.9644 19.266 86.9644Z" fill="#FCFCFC"/>
</svg>
