<svg width="220" height="240" viewBox="0 0 220 240" fill="none" xmlns="http://www.w3.org/2000/svg">
<g clip-path="url(#clip0_898_489)">
<path d="M115.314 234.751C89.1075 234.751 64.4129 224.604 45.7795 206.179L42.2969 209.701C61.8622 229.049 87.7942 239.704 115.314 239.704C140.552 239.704 164.88 230.543 183.82 213.908L180.55 210.185C162.516 226.027 139.348 234.751 115.314 234.751Z" fill="#002D4B"/>
<path d="M11.4648 -0.000929782V102.178H16.4182V4.9524H214.188V55.0631H219.141V-0.000929782H11.4648Z" fill="#002D4B"/>
<path d="M88.591 149.873C98.859 149.873 105.506 149.446 112.468 141.045L112.602 140.87C112.655 140.792 118.128 133.078 128.896 136.672L130.464 131.973C123.06 129.502 117.507 131.252 114.152 133.154C110.84 135.033 109.016 137.376 108.598 137.952C103.295 144.317 98.8843 144.92 88.591 144.92C87.1323 144.92 85.6656 144.817 84.2336 144.616L83.543 149.521C85.203 149.754 86.9016 149.873 88.591 149.873Z" fill="#002D4B"/>
<path d="M140.287 181.533L139.918 181.802C138.731 182.669 138.106 182.853 137.943 182.889C137.185 182.771 136.727 182.407 135.603 181.446C135.438 181.305 135.266 181.158 135.087 181.007C132.877 179.149 127.367 176.894 120.746 180.237L122.978 184.659C128.386 181.929 131.865 184.77 131.899 184.799C132.067 184.941 132.227 185.078 132.383 185.21C133.717 186.35 135.095 187.53 137.438 187.819C137.606 187.839 137.777 187.85 137.95 187.85C139.353 187.85 140.959 187.175 142.841 185.802L143.198 185.541C145.291 184.021 146.229 183.251 148.414 179.427C150.034 176.593 152.519 171.55 154.598 166.879C158.61 157.87 158.417 156.451 158.313 155.689C158.079 153.977 156.627 152.345 153.459 150.231C151.847 149.155 150.281 148.293 149.821 148.045C145.254 144.878 142.09 139.967 141.127 134.545C141.019 133.839 139.926 127.471 135.183 124.09C132.527 122.198 129.323 121.601 125.661 122.315L126.61 127.178C128.909 126.729 130.767 127.034 132.29 128.111C135.47 130.362 136.223 135.246 136.23 135.287L136.243 135.371C137.437 142.154 141.405 148.29 147.13 152.206L147.246 152.286L147.37 152.351C149.919 153.701 152.595 155.551 153.342 156.455C152.754 159.286 147.445 171.138 144.113 176.969C142.369 180.021 141.929 180.341 140.287 181.533Z" fill="#002D4B"/>
<path d="M31.8493 152.008C32.2027 152.074 32.5587 152.14 32.916 152.208C39.824 153.516 45.4933 154.158 50.4 154.158C53.2853 154.158 55.9067 153.936 58.3613 153.498C65.6133 152.199 71.5467 148.95 77.032 143.271C79.756 140.452 82.0187 137.139 83.7587 133.422L79.2733 131.322C77.764 134.543 75.812 137.406 73.4693 139.83C64.4147 149.202 54.044 151.167 33.8373 147.34C33.4747 147.272 33.1147 147.204 32.756 147.138C29.3467 146.503 26.4013 145.955 23.7307 144.516C23.3787 144.326 23.0213 144.124 22.6693 143.918C21.0573 142.966 18.792 143.11 16.392 143.262C15.2373 143.335 13.3307 143.456 12.704 143.247C12.4347 143.007 12.1827 142.776 11.9427 142.556C10.4733 141.21 9.08533 139.938 6.83333 139.626C4.58 139.315 2.28133 140.076 0 141.888L3.08133 145.767C3.89333 145.123 5.08533 144.386 6.156 144.534C6.81867 144.624 7.32267 145.042 8.59467 146.208C8.88533 146.474 9.19333 146.756 9.52667 147.05C11.228 148.552 13.888 148.384 16.704 148.206C17.808 148.135 19.644 148.019 20.1947 148.208C20.588 148.44 20.9867 148.664 21.3813 148.878C24.7333 150.683 28.1893 151.327 31.8493 152.008Z" fill="#002D4B"/>
<path d="M16.6367 123.498C16.7514 123.989 16.8807 124.546 17.0767 125.158C18.2114 128.702 21.2394 132.913 25.4447 134.326C26.658 134.734 30.17 135.215 34.0354 135.215C37.434 135.215 41.106 134.843 43.726 133.721C46.958 132.337 48.9807 129.765 51.322 126.787C52.3167 125.523 53.4434 124.09 54.7847 122.59L51.09 119.289C49.646 120.905 48.4674 122.403 47.4287 123.725C45.3474 126.37 43.8447 128.281 41.7754 129.167C37.5327 130.986 28.342 130.074 27.0234 129.631C24.586 128.811 22.5474 126.001 21.794 123.647C21.6594 123.227 21.5634 122.814 21.462 122.375C21.1607 121.079 20.7847 119.465 19.2967 118.014C17.3527 116.119 11.778 114.99 10.7887 114.903L10.3594 119.839C11.3887 119.929 15.0594 120.946 15.8554 121.578C16.2567 121.977 16.3767 122.381 16.6367 123.498Z" fill="#002D4B"/>
<path d="M32.8534 177.557C33.7787 178.338 35.0454 179.408 36.9561 179.73C37.6361 179.845 38.2361 179.896 38.7801 179.896C40.5201 179.896 41.6801 179.38 42.9867 178.8C45.4147 177.721 49.3067 175.816 52.9494 173.701C57.8774 170.84 60.9774 168.421 62.4241 166.305C65.0574 162.456 65.9601 158.012 64.7801 154.708L60.1147 156.373C60.7507 158.154 60.0361 161.022 58.3361 163.508C56.2681 166.532 46.9387 171.622 40.9547 174.282C39.5054 174.926 39.1614 175.078 37.7801 174.846C37.2321 174.753 36.7881 174.396 36.0507 173.773C35.0694 172.944 33.7254 171.809 31.6614 171.636C29.8841 171.486 25.4081 171.865 23.7188 172.906L26.3201 177.122C26.2947 177.138 26.2667 177.154 26.2347 177.169C26.8961 176.872 29.7854 176.449 31.2481 176.572C31.6921 176.609 32.0587 176.886 32.8534 177.557Z" fill="#002D4B"/>
<path d="M181.154 143.115C179.386 141.655 177.99 140.501 177.196 137.752C176.448 135.165 176.916 133.389 177.508 131.14C177.945 129.476 178.441 127.592 178.46 125.249C178.461 125.023 178.465 124.784 178.469 124.535C178.51 121.895 178.572 117.904 176.681 114.637L176.616 114.532C176.308 114.057 173.533 109.832 170.924 107.876L167.95 111.837C169.541 113.031 171.682 116.04 172.422 117.171C173.597 119.249 173.55 122.256 173.516 124.457C173.512 124.72 173.508 124.972 173.505 125.211C173.492 126.932 173.116 128.364 172.717 129.88C172.057 132.387 171.31 135.228 172.437 139.128C173.657 143.347 176.065 145.336 178 146.933C179.44 148.124 180.577 149.063 181.249 150.797C182.254 153.391 180.789 160.003 173.658 170.78C168.142 179.117 160.813 187.319 155.834 190.723L155.705 190.817C153.188 192.789 145.874 198.197 142.316 199.528L141.969 199.659C140.784 200.107 140.028 200.373 139.44 200.2C138.914 200.045 138.124 199.693 137.358 199.352C135.622 198.58 133.984 197.852 132.509 197.916C130.336 198.013 127.856 200.376 126.57 201.775L130.22 205.125C131.072 204.197 132.266 203.181 132.833 202.889C133.398 203.012 134.598 203.547 135.344 203.879C136.257 204.284 137.2 204.705 138.04 204.952C138.658 205.135 139.254 205.208 139.826 205.208C141.3 205.208 142.609 204.713 143.722 204.291L144.052 204.168C148.896 202.356 157.785 195.476 158.696 194.767C164.228 190.957 171.89 182.432 177.79 173.513C186.952 159.667 187.24 152.544 185.868 149.007C184.729 146.067 182.83 144.499 181.154 143.115Z" fill="#002D4B"/>
<path d="M216.322 153.906C213.561 142.712 209.78 127.381 200.7 125.477C198.122 124.937 195.962 126.053 194.057 127.04C192.338 127.929 190.714 128.769 188.545 128.816L188.246 128.821C185.533 128.88 185.533 128.879 183.608 128.419C183.354 128.359 183.072 128.291 182.754 128.217L181.621 133.04L182.457 133.238C184.908 133.822 185.128 133.844 188.353 133.774L188.65 133.768C191.969 133.697 194.389 132.445 196.334 131.438C197.929 130.613 198.87 130.154 199.682 130.325C205.716 131.59 209.486 146.878 211.513 155.093C211.888 156.613 212.242 158.049 212.577 159.305C213.197 161.625 210.026 168.87 207.48 174.693C205.689 178.787 203.838 183.019 202.405 187.147C200.942 191.363 199.582 192.446 199.2 192.677C198.938 192.835 198.608 192.901 197.997 193.01C197.053 193.181 195.76 193.415 194.25 194.326C192.806 195.198 188.37 199.002 187.536 200.317L191.718 202.971C191.704 202.993 191.688 203.019 191.665 203.049C192.236 202.315 195.768 199.197 196.81 198.567C197.538 198.127 198.129 198.021 198.877 197.886C199.693 197.738 200.709 197.554 201.768 196.914C203.89 195.627 205.63 192.963 207.085 188.773C208.454 184.827 210.266 180.685 212.018 176.678C215.993 167.591 218.378 161.827 217.364 158.027C217.041 156.817 216.692 155.403 216.322 153.906Z" fill="#002D4B"/>
<path d="M186.597 177.955L186.157 177.87L185.714 177.945C185.47 177.986 185.236 177.993 184.941 178.002C184.306 178.021 183.438 178.046 182.362 178.459C180.661 179.114 179.257 180.393 178.188 182.261L182.488 184.721C182.976 183.869 183.532 183.318 184.141 183.083C184.414 182.978 184.597 182.967 185.086 182.953C185.373 182.945 185.712 182.935 186.104 182.89C186.697 182.973 187.802 183.078 189.049 182.971C192.52 182.674 194.193 181.019 194.985 179.683C197.253 175.857 198.617 163.101 195.962 157.29C194.774 154.69 193.036 153.875 191.788 153.65L190.892 158.521C191.006 158.575 191.414 159.01 191.785 160.241C193.29 165.235 192.006 174.993 190.724 177.158C190.136 178.15 187.737 178.165 186.597 177.955Z" fill="#002D4B"/>
<path d="M47.6308 195.126C61.8042 191.33 78.7842 180.725 80.5148 178.647C87.9202 169.766 90.4402 160.202 91.2495 153.742L86.3348 153.126C85.6082 158.918 83.3562 167.483 76.7468 175.431C75.1882 176.922 59.3722 186.891 46.2148 190.377C45.1095 190.669 43.9655 191.611 41.8722 193.39C40.9682 194.158 39.4868 195.418 38.8868 195.747C37.8215 195.906 37.7255 195.874 37.1055 195.661C36.9042 195.591 36.6788 195.515 36.4148 195.433C35.5895 195.175 35.0735 194.925 34.4762 194.634C33.7695 194.29 32.9708 193.902 31.7228 193.53C29.7788 192.949 27.6642 193.105 25.4375 193.99L27.2682 198.593C28.4348 198.129 29.4575 198.023 30.3068 198.277C31.1668 198.534 31.6962 198.791 32.3095 199.089C32.9895 199.419 33.7588 199.794 34.9402 200.162C35.1535 200.227 35.3335 200.29 35.4962 200.346C36.3202 200.629 36.9455 200.798 37.8548 200.798C38.3855 200.798 39.0148 200.739 39.8388 200.614C41.2175 200.402 42.5842 199.286 45.0802 197.166C45.9108 196.459 47.1468 195.409 47.6308 195.126Z" fill="#002D4B"/>
<path d="M58.7072 126.022L61.7165 129.958C64.6032 127.75 66.1045 125.069 65.9405 122.409C65.7965 120.069 64.3859 118.475 62.2499 116.311C59.5579 113.585 57.8232 112.19 56.6752 111.267C55.4592 110.291 55.1899 110.058 54.8232 109.315C53.7672 107.17 53.8765 104.285 55.0992 101.966C56.0672 100.131 57.5525 99.0487 58.6285 98.4647L56.2632 94.1113C54.5859 95.0233 52.2632 96.7247 50.7179 99.654C48.7485 103.387 48.6192 107.927 50.3792 111.502C51.2432 113.258 52.2192 114.042 53.5712 115.129C54.6952 116.031 56.2325 117.267 58.7245 119.793C60.6005 121.691 60.9699 122.285 60.9965 122.713C61.0525 123.631 60.1752 124.899 58.7072 126.022Z" fill="#002D4B"/>
<path d="M87.1901 126.032C88.7208 121.09 88.5515 117.019 86.6888 113.936C85.6408 112.202 84.2781 111.118 83.0755 110.162C81.7421 109.102 80.7781 108.336 80.2728 106.876C79.9181 105.855 79.8635 104.698 80.1088 103.438L75.2461 102.492C74.8328 104.622 74.9488 106.642 75.5915 108.498C76.5688 111.318 78.4675 112.827 79.9928 114.04C80.9955 114.836 81.8608 115.526 82.4488 116.499C83.5488 118.319 83.5528 121.034 82.4581 124.567L87.1901 126.032Z" fill="#002D4B"/>
<path d="M84.1055 100.963C84.1681 103.194 84.6975 105.243 85.6815 107.054C87.1495 109.758 89.1348 111.052 90.8868 112.194C92.1228 112.998 93.1881 113.692 94.0108 114.842C95.1961 116.5 95.6468 118.852 95.3481 121.834L100.277 122.327C100.699 118.114 99.9455 114.626 98.0401 111.96C96.6748 110.051 95.0375 108.984 93.5908 108.043C92.0908 107.064 90.9041 106.292 90.0348 104.69C89.4268 103.57 89.0975 102.27 89.0575 100.824L84.1055 100.963Z" fill="#002D4B"/>
<path d="M106.575 114.925C108.94 110.68 109.492 107.025 108.217 104.063C107.439 102.251 106.237 101.271 104.845 100.135C104.18 99.5906 103.425 98.976 102.54 98.1373C100.753 96.4453 99.1613 94.5346 97.808 92.4573L97.7147 92.324C97.6867 92.2866 94.944 88.6053 93.9227 85.5413L89.2227 87.108C90.4267 90.72 93.2653 94.6386 93.7 95.228C95.256 97.604 97.084 99.7933 99.1347 101.735C100.152 102.699 101.017 103.404 101.713 103.972C102.943 104.975 103.381 105.356 103.667 106.02C104.459 107.86 103.332 110.567 102.248 112.515L106.575 114.925Z" fill="#002D4B"/>
<path d="M74.0367 133.589C76.978 124.783 76.7954 118.409 73.4794 114.105C72.0887 112.301 70.3794 111.18 68.87 110.192C67.1354 109.055 66.1447 108.361 65.954 107.337C65.742 106.195 66.4274 104.68 67.9367 102.955L64.2074 99.6934C61.6287 102.641 60.578 105.519 61.0847 108.243C61.6714 111.395 64.0527 112.957 66.1554 114.335C67.45 115.184 68.674 115.987 69.5554 117.129C71.7567 119.987 71.6834 124.996 69.338 132.02L74.0367 133.589Z" fill="#002D4B"/>
<path d="M66.4586 77.5595L60.4813 76.1395L59.3359 80.9595L67.6719 82.9395L71.7453 79.6661L75.8173 82.9395L84.1546 80.9595L83.0093 76.1395L77.0319 77.5595L74.2226 75.3021V72.6101L78.0053 70.7795L75.8479 66.3208L71.7453 68.3061L67.6426 66.3208L65.4853 70.7795L69.2679 72.6101V75.3021L66.4586 77.5595Z" fill="#002D4B"/>
<path d="M71.7463 90.412L68.1343 89.2106L61.2383 90.1173L61.8849 95.028L67.6503 94.2693L71.7463 95.6333L75.8329 94.2733L81.5929 95.068L82.2703 90.16L75.3663 89.2066L71.7463 90.412Z" fill="#002D4B"/>
<path d="M58.2245 61.2192L59.3431 58.8152L68.2978 60.9566L69.4498 56.1379L56.5018 53.0419L53.7031 59.1939L58.2245 61.2192Z" fill="#002D4B"/>
<path d="M85.2683 61.2192L84.1496 58.8152L75.195 60.9566L74.043 56.1379L86.991 53.0419L89.7896 59.1939L85.2683 61.2192Z" fill="#002D4B"/>
<path d="M100.522 54.4804L97.6222 50.4644C95.0596 52.315 93.6849 54.4257 93.5369 56.739C93.4209 58.555 94.1236 59.8844 94.6356 60.8537C95.0276 61.5964 95.2329 62.007 95.2342 62.519C95.2369 63.6857 94.1142 64.9284 93.1729 65.7657L91.6262 67.1137L92.6849 68.875C92.7316 68.9564 93.8129 70.8897 92.8116 72.731C91.8969 74.415 89.9862 74.6804 89.9062 74.691L90.5409 79.603C91.2916 79.5057 95.1343 78.8324 97.1649 75.0964C98.5089 72.623 98.3182 70.0537 97.7462 68.195C99.3729 66.371 100.193 64.463 100.188 62.5057C100.182 60.7484 99.5089 59.471 99.0156 58.539C98.6076 57.7684 98.4569 57.4404 98.4809 57.055C98.5289 56.311 99.2529 55.3964 100.522 54.4804Z" fill="#002D4B"/>
<path d="M45.0101 57.0545C45.0354 57.4399 44.8834 57.7679 44.4754 58.5385C43.9834 59.4705 43.3088 60.7479 43.3034 62.5052C43.2981 64.4625 44.1181 66.3705 45.7447 68.1945C45.1727 70.0519 44.9821 72.6212 46.3261 75.0959C48.3567 78.8319 52.1994 79.5065 52.9501 79.6025L53.5861 74.6905C53.5047 74.6799 51.5941 74.4145 50.6794 72.7305C49.6794 70.8892 50.7594 68.9572 50.7954 68.8945L51.8554 67.1319L50.3194 65.7665C49.3767 64.9279 48.2541 63.6852 48.2567 62.5185C48.2581 62.0065 48.4634 61.5959 48.8554 60.8532C49.3674 59.8839 50.0701 58.5545 49.9541 56.7385C49.8061 54.4252 48.4314 52.3145 45.8687 50.4639L42.9688 54.4799C44.2381 55.3959 44.9621 56.3105 45.0101 57.0545Z" fill="#002D4B"/>
<path d="M97.3636 78.1455C97.0436 79.2268 96.6516 81.3882 97.6236 83.7162C99.1836 87.4548 102.889 88.4962 104.008 88.7308C104.418 88.8988 105.966 89.6215 106.278 91.0215L111.113 89.9468C110.334 86.4388 107.18 84.5455 105.438 83.9802L105.244 83.9202L105.065 83.8908C105.044 83.8868 102.904 83.5068 102.194 81.8082C101.813 80.8948 101.98 80.0028 102.114 79.5522L97.3636 78.1455Z" fill="#002D4B"/>
<path d="M40.0541 108.497L44.7408 106.893C43.9688 104.638 43.8621 102.578 44.4234 100.77C44.7821 99.6126 45.5674 98.4792 47.3101 96.0259C48.3741 94.5273 49.2474 93.4086 49.9488 92.5099C51.6581 90.3206 52.7874 88.8753 52.3008 86.7273C51.5168 83.2673 47.0168 82.1673 45.5381 81.8046L44.3621 86.6166C46.1861 87.0633 46.9901 87.5179 47.3168 87.7619C47.0541 88.1686 46.5435 88.8232 46.0448 89.4619C45.3115 90.3992 44.3995 91.5673 43.2715 93.1579C41.4181 95.7659 40.2995 97.3419 39.6915 99.3032C38.8141 102.135 38.9355 105.229 40.0541 108.497Z" fill="#002D4B"/>
<path d="M90.6883 43.8461C88.7549 45.3048 86.3976 44.4154 86.3149 44.3821L84.4336 48.9648C85.2776 49.3114 86.5749 49.6274 88.0563 49.6274C89.8216 49.6274 91.8469 49.1794 93.6723 47.7994C96.5416 45.6341 97.4629 42.2154 97.3789 39.9461L92.4283 40.1288C92.4323 40.2234 92.4936 42.4834 90.6883 43.8461Z" fill="#002D4B"/>
<path d="M76.8483 38.5824C75.4123 40.7957 75.347 43.0557 75.4363 44.2051L80.375 43.8237C80.335 43.2984 80.3617 42.2677 81.0043 41.2771C81.8937 39.9064 83.3577 39.5517 83.7843 39.4757L82.9163 34.5984C81.9923 34.7637 78.823 35.5371 76.8483 38.5824Z" fill="#002D4B"/>
<path d="M73.1501 27.0794C72.7901 28.8634 72.2981 31.3061 70.6514 32.2474C67.6394 33.9701 64.7941 35.5981 64.4834 38.5621C64.2901 40.4034 64.8341 44.4647 68.2781 46.6567L70.9381 42.4781C69.3754 41.4834 69.3981 39.3634 69.4087 39.1061C69.7021 38.4981 72.0007 37.1821 73.1114 36.5474C76.7087 34.4901 77.5527 30.3061 78.0061 28.0594C78.0861 27.6647 78.1847 27.1741 78.2434 27.0034L73.5647 25.3754C73.3954 25.8634 73.2821 26.4274 73.1501 27.0794Z" fill="#002D4B"/>
<path d="M55.9609 36.4898L58.2903 40.8618C59.1476 40.4045 60.7183 39.3325 61.6089 37.2805C62.3143 35.6578 62.2783 34.1565 62.1236 33.1832L57.2316 33.9578C57.2729 34.2232 57.3076 34.7498 57.0649 35.3072C56.7623 36.0045 56.1916 36.3671 55.9609 36.4898Z" fill="#002D4B"/>
<path d="M50.0471 38.8226L45.0938 38.8359C45.0978 40.1412 45.3924 44.6372 49.0404 47.7026C50.3058 48.7666 51.7897 49.5106 53.4511 49.9146L54.6231 45.1012C53.7084 44.8786 52.9031 44.4786 52.2271 43.9106C50.2124 42.2172 50.0498 39.5879 50.0471 38.8226Z" fill="#002D4B"/>
<path d="M31.9174 191.587L34.836 187.584C33.732 186.78 30.7374 184.973 26.7734 185.577C23.7947 186.031 21.772 187.643 20.832 188.563L24.2974 192.103C24.812 191.599 25.9134 190.719 27.5187 190.475C29.724 190.139 31.4427 191.241 31.9174 191.587Z" fill="#002D4B"/>
<path d="M7.4995 135.475C9.67283 136.184 10.4035 138.324 10.4328 138.415L15.1368 136.859C14.8822 136.091 13.3942 132.188 9.03683 130.765C4.3475 129.235 0.5995 132.012 0.1875 132.333L3.2355 136.239C3.3155 136.176 5.22217 134.731 7.4995 135.475Z" fill="#002D4B"/>
<path d="M9.1773 127.127C10.6293 127.558 11.3026 128.766 11.424 129.004L15.8426 126.766C15.448 125.986 13.9 123.362 10.5866 122.378C7.2013 121.374 4.43464 122.798 3.66797 123.258L6.21864 127.506C6.45197 127.364 7.6933 126.686 9.1773 127.127Z" fill="#002D4B"/>
<path d="M26.286 178.589C24.4033 178.73 22.5647 179.351 20.9727 180.385L23.6673 184.541C24.294 184.134 25.322 183.629 26.658 183.529C27.8433 183.439 28.826 183.706 29.442 183.945L31.238 179.329C29.6687 178.718 27.9567 178.462 26.286 178.589Z" fill="#002D4B"/>
<path d="M127.875 197.504C129.128 196.712 130.524 196.193 132.024 195.965L131.277 191.068C129.097 191.4 127.061 192.157 125.227 193.317C124.083 194.04 123.033 194.914 122.109 195.914L125.747 199.277C126.379 198.593 127.095 197.997 127.875 197.504Z" fill="#002D4B"/>
<path d="M125.096 190.87C126.43 190.153 127.318 189.934 127.549 189.91L127.036 184.982C125.893 185.102 124.332 185.657 122.75 186.506C121.254 187.31 120.176 188.11 119.453 188.949L123.208 192.179C123.35 192.014 123.818 191.555 125.096 190.87Z" fill="#002D4B"/>
<path d="M181.935 186.766C179.442 188.34 178.601 190.164 178.355 190.874L183.035 192.5C183.038 192.492 183.337 191.74 184.579 190.956C185.761 190.21 186.825 189.997 187.023 189.984C186.97 189.986 186.923 189.982 186.886 189.98L187.291 185.042C186.174 184.952 184.019 185.452 181.935 186.766Z" fill="#002D4B"/>
<path d="M187.744 191.373C186.162 191.887 184.748 192.801 183.656 194.015C182.923 194.831 182.343 195.767 181.934 196.795L186.538 198.626C186.73 198.143 186.999 197.706 187.34 197.327C187.986 196.61 188.748 196.255 189.275 196.085L187.744 191.373Z" fill="#002D4B"/>
<path d="M173.698 22.9554C172.456 23.9287 170.364 23.7047 169.638 23.5314C169.472 23.4821 169.301 23.4367 169.12 23.3901C168.393 23.1981 167.397 22.9367 164.808 21.6047C160.146 19.2074 153.761 15.9247 143.988 14.2541C133.1 12.3914 125.74 15.7741 121.484 18.9381C112.982 25.2594 110.996 34.6767 110.586 37.4554C110.069 40.5661 109.008 51.2701 116.621 60.1901C122.937 67.5887 132.69 71.0447 145.609 70.4607C157 69.9461 165.838 70.3661 171.246 70.8101L171.652 65.8727C166.1 65.4181 157.036 64.9847 145.385 65.5114C134.073 66.0221 125.661 63.1501 120.389 56.9741C114.146 49.6607 115.05 40.7927 115.476 38.2487L115.484 38.1981C115.816 35.9274 117.442 28.1167 124.44 22.9141C127.92 20.3261 133.99 17.5714 143.153 19.1367C152.174 20.6781 158.166 23.7594 162.542 26.0101C165.613 27.5887 166.91 27.9314 167.858 28.1794C168.001 28.2181 168.134 28.2514 168.265 28.2914L168.357 28.3181C168.854 28.4474 173.309 29.5127 176.71 26.8874C178.913 25.1887 180.029 22.4821 180.029 18.8407H175.074C175.074 20.8567 174.612 22.2407 173.698 22.9554Z" fill="#002D4B"/>
<path d="M182.535 105.381C183.123 105.451 183.757 105.489 184.422 105.489C188.33 105.489 193.363 104.217 197.25 101.126C200.375 98.6421 202.238 95.3674 202.638 91.6568C203.838 80.5034 199.358 72.2421 190.655 69.5581L185.955 68.3141L184.691 73.1048L189.242 74.3061C198.218 77.1088 198.157 86.9981 197.713 91.1261C197.454 93.5234 196.262 95.5834 194.167 97.2488C190.758 99.9608 186.055 100.817 183.129 100.462L182.393 100.375C178.365 99.8994 172.849 99.2488 168.566 96.1661C164.489 93.2301 161.806 92.1701 157.678 91.0288C151.013 89.1874 146.117 90.7008 140.934 92.3048C135.043 94.1261 128.954 96.0101 118.595 93.6301L112.558 92.1301L111.363 96.9381L117.422 98.4421L117.463 98.4528C129.134 101.139 136.489 98.8648 142.398 97.0368C147.255 95.5354 151.091 94.3474 156.358 95.8034C160.053 96.8248 162.162 97.6594 165.673 100.186C170.994 104.018 177.505 104.786 181.811 105.294L182.535 105.381Z" fill="#002D4B"/>
<path d="M127.89 27.5554C122.156 31.8194 121.221 38.8994 121.184 39.1981L126.1 39.8154C126.106 39.7634 126.848 34.4768 130.881 31.5048C133.492 29.5808 137.012 28.9808 141.344 29.7221L142.178 24.8381C136.441 23.8581 131.634 24.7728 127.89 27.5554Z" fill="#002D4B"/>
<path d="M153.355 59.4862C159.639 59.5129 165.978 59.8049 172.195 60.3516L172.629 55.4169C166.275 54.8582 159.798 54.5609 153.377 54.5329L153.355 59.4862Z" fill="#002D4B"/>
<path d="M209.233 65.228C204.45 60.1214 198.166 57.0334 191.985 56.7507L186.786 56.28L186.338 61.2134L191.594 61.6894L191.712 61.6974C196.629 61.908 201.697 64.4294 205.617 68.6147C208.937 72.1587 212.998 78.6054 213.493 89.1854C213.986 99.7267 208.722 106.605 208.669 106.665C205.79 109.937 198.636 115.499 183.058 115.987C182.866 115.993 182.72 115.999 182.621 116.003L182.869 120.951C182.946 120.947 183.062 120.944 183.214 120.939C190.702 120.704 204.448 118.961 212.388 109.937C212.454 109.861 219.041 101.768 218.441 88.9534C217.876 76.8667 213.122 69.38 209.233 65.228Z" fill="#002D4B"/>
<path d="M184.588 23.9051L182.492 28.3931C183.915 29.0584 185.387 29.3784 186.808 29.3784C189.652 29.3784 192.298 28.0971 193.95 25.7184C195.49 23.5051 195.868 20.9438 195.57 19.4998L190.719 20.5064C190.715 20.4878 190.711 20.4664 190.708 20.4438C190.732 20.6758 190.662 21.7704 189.883 22.8918C189.039 24.1051 187.146 25.0998 184.588 23.9051Z" fill="#002D4B"/>
<path d="M177.193 36.5492C178.074 36.4985 179.42 36.5732 180.832 37.2318C182.888 38.1905 183.961 39.8478 184.417 40.7505L188.838 38.5145C188.092 37.0398 186.332 34.3305 182.924 32.7425C181.065 31.8758 178.981 31.4825 176.902 31.6038L177.193 36.5492Z" fill="#002D4B"/>
<path d="M167.27 73.0594L162.676 74.9101C164.344 79.0541 167.01 81.4687 170.182 81.7074C170.353 81.7194 170.524 81.7261 170.693 81.7261C173.648 81.7261 176.429 79.7834 178.57 76.2007C180.521 72.9367 181.79 68.5527 182.144 63.8554C182.945 53.2247 179.009 44.8674 172.99 44.4141C169.818 44.1741 166.821 46.1621 164.55 50.0101L168.816 52.5287C170.041 50.4541 171.461 49.2687 172.618 49.3541C173.761 49.4394 174.977 50.7994 175.874 52.9914C177.012 55.7714 177.497 59.5954 177.205 63.4834C176.912 67.3714 175.86 71.0807 174.318 73.6594C173.104 75.6914 171.697 76.8527 170.554 76.7674C169.398 76.6807 168.17 75.2941 167.27 73.0594Z" fill="#002D4B"/>
</g>
<defs>
<clipPath id="clip0_898_489">
<rect width="219.142" height="239.705" fill="white" transform="matrix(1 0 0 -1 0 239.704)"/>
</clipPath>
</defs>
</svg>
